<svg width="44" height="44" viewBox="0 0 44 44" fill="none" xmlns="http://www.w3.org/2000/svg">
<rect width="44" height="44" rx="22" fill="white"/>
<path d="M19.2569 31.5C18.6665 31.5 18.1002 31.2629 17.6828 30.841C17.2653 30.419 17.0308 29.8467 17.0308 29.25C17.0308 28.6533 17.2653 28.081 17.6828 27.659C18.1002 27.2371 18.6665 27 19.2569 27C19.8473 27 20.4135 27.2371 20.831 27.659C21.2484 28.081 21.483 28.6533 21.483 29.25C21.483 29.8467 21.2484 30.419 20.831 30.841C20.4135 31.2629 19.8473 31.5 19.2569 31.5ZM27.0483 31.5C26.4579 31.5 25.8916 31.2629 25.4742 30.841C25.0567 30.419 24.8221 29.8467 24.8221 29.25C24.8221 28.6533 25.0567 28.081 25.4742 27.659C25.8916 27.2371 26.4579 27 27.0483 27C27.6387 27 28.2049 27.2371 28.6224 27.659C29.0398 28.081 29.2744 28.6533 29.2744 29.25C29.2744 29.8467 29.0398 30.419 28.6224 30.841C28.2049 31.2629 27.6387 31.5 27.0483 31.5ZM12.5362 15.6634C12.2584 15.6543 11.9949 15.5364 11.8015 15.3345C11.6081 15.1327 11.5 14.8627 11.5 14.5817C11.5 14.3007 11.6081 14.0307 11.8015 13.8289C11.9949 13.627 12.2584 13.5091 12.5362 13.5H13.8174C14.8213 13.5 15.6895 14.2043 15.9077 15.1943L17.3023 21.5415C17.5205 22.5315 18.3887 23.2358 19.3927 23.2358H27.7539L29.359 16.7445H18.9575C18.6822 16.7318 18.4224 16.6124 18.2321 16.411C18.0417 16.2096 17.9355 15.9419 17.9355 15.6634C17.9355 15.3849 18.0417 15.1171 18.2321 14.9158C18.4224 14.7144 18.6822 14.5949 18.9575 14.5823H29.359C29.6843 14.5822 30.0055 14.657 30.2979 14.8012C30.5904 14.9454 30.8465 15.1551 31.0467 15.4143C31.2469 15.6735 31.3861 15.9755 31.4535 16.2972C31.521 16.6189 31.5149 16.952 31.4359 17.271L29.8309 23.76C29.7152 24.2282 29.4479 24.6439 29.0716 24.9409C28.6952 25.2379 28.2314 25.3992 27.7539 25.3991H19.3927C18.4185 25.3993 17.4734 25.0636 16.7136 24.4475C15.9537 23.8314 15.4244 22.9718 15.2131 22.0106L13.8174 15.6634H12.5362Z" fill="#4CAD73"/>
</svg>
