<svg width="24" height="24" viewBox="0 0 24 24" fill="none" xmlns="http://www.w3.org/2000/svg">
<path d="M7.8125 2C7.72206 2.00002 7.63251 2.01788 7.54899 2.05257C7.46546 2.08725 7.3896 2.13808 7.32575 2.20213L3.20075 6.32713C3.10483 6.42335 3.03956 6.54584 3.01321 6.67913C2.98685 6.81242 3.00058 6.95053 3.05266 7.07603C3.10474 7.20152 3.19283 7.30877 3.30582 7.38422C3.41881 7.45968 3.55163 7.49997 3.6875 7.5H4.375V18.5H3.6875C3.50516 18.5 3.3303 18.5724 3.20136 18.7014C3.07243 18.8303 3 19.0052 3 19.1875C3 19.3698 3.07243 19.5447 3.20136 19.6736C3.3303 19.8026 3.50516 19.875 3.6875 19.875H4.375V20.5625C4.375 20.7448 4.44743 20.9197 4.57636 21.0486C4.7053 21.1776 4.88016 21.25 5.0625 21.25H18.8125C18.8418 21.2509 18.8716 21.2491 18.9019 21.2445C19.0674 21.2228 19.2193 21.1416 19.3294 21.0161C19.4394 20.8907 19.5001 20.7294 19.5 20.5625V19.875H20.1875C20.3698 19.875 20.5447 19.8026 20.6736 19.6736C20.8026 19.5447 20.875 19.3698 20.875 19.1875C20.875 19.0052 20.8026 18.8303 20.6736 18.7014C20.5447 18.5724 20.3698 18.5 20.1875 18.5H19.5V7.5H20.1875C20.3237 7.50024 20.4568 7.46006 20.5701 7.38453C20.6834 7.309 20.7717 7.20154 20.8238 7.07576C20.876 6.94999 20.8896 6.81156 20.863 6.67804C20.8363 6.54451 20.7706 6.4219 20.6742 6.32575L16.5492 2.20075C16.4853 2.13695 16.4094 2.08638 16.3259 2.05193C16.2423 2.01749 16.1528 1.99984 16.0625 2H14.1471L16.7981 6.125H13.5572L12.6731 2H11.2019L10.3177 6.125H7.07687L9.72787 2H7.8125ZM5.75 7.5H18.125V18.5H5.75V7.5ZM10.5625 10.25C10.4348 10.2501 10.3096 10.2858 10.2011 10.3531C10.0925 10.4204 10.0048 10.5166 9.94787 10.6309L7.19787 16.1309C7.14567 16.2356 7.12108 16.352 7.12643 16.4689C7.13178 16.5859 7.16689 16.6995 7.22845 16.799C7.29 16.8986 7.37595 16.9808 7.47816 17.0378C7.58037 17.0949 7.69545 17.1249 7.8125 17.125H16.0625C16.1795 17.1249 16.2946 17.0949 16.3968 17.0378C16.499 16.9808 16.585 16.8986 16.6466 16.799C16.7081 16.6995 16.7432 16.5859 16.7486 16.4689C16.7539 16.352 16.7293 16.2356 16.6771 16.1309L13.9271 10.6309C13.8702 10.5166 13.7825 10.4204 13.6739 10.3531C13.5654 10.2858 13.4402 10.2501 13.3125 10.25H10.5625Z" fill="black"/>
</svg>
