<svg width="18" height="18" viewBox="0 0 18 18" fill="none" xmlns="http://www.w3.org/2000/svg">
<path fill-rule="evenodd" clip-rule="evenodd" d="M11.6437 7.73438C11.6437 9.19538 10.4527 10.3594 9.00975 10.3594C7.566 10.3594 6.375 9.19538 6.375 7.73438C6.375 6.27188 7.566 5.10938 9.00975 5.10938C9.35506 5.10879 9.69711 5.17622 10.0164 5.30781C10.3356 5.43941 10.6258 5.6326 10.8704 5.87636C11.115 6.12011 11.3092 6.40965 11.4419 6.72845C11.5746 7.04725 11.6432 7.38907 11.6437 7.73438ZM9.00975 8.85938C9.636 8.85938 10.1437 8.35538 10.1437 7.73438C10.1437 7.11263 9.636 6.60938 9.00975 6.60938C8.38275 6.60938 7.875 7.11263 7.875 7.73438C7.875 8.35538 8.38275 8.85938 9.00975 8.85938Z" fill="#888888"/>
<path fill-rule="evenodd" clip-rule="evenodd" d="M9 3.375C6.33225 3.375 4.125 5.46975 4.125 8.60175C4.125 8.80066 4.04598 8.99143 3.90533 9.13208C3.76468 9.27273 3.57391 9.35175 3.375 9.35175C3.17609 9.35175 2.98532 9.27273 2.84467 9.13208C2.70402 8.99143 2.625 8.80066 2.625 8.60175C2.625 4.69125 5.45475 1.875 9 1.875C12.5453 1.875 15.375 4.69125 15.375 8.60175C15.375 8.80066 15.296 8.99143 15.1553 9.13208C15.0147 9.27273 14.8239 9.35175 14.625 9.35175C14.4261 9.35175 14.2353 9.27273 14.0947 9.13208C13.954 8.99143 13.875 8.80066 13.875 8.60175C13.875 5.46975 11.6677 3.375 9 3.375Z" fill="#888888"/>
<path fill-rule="evenodd" clip-rule="evenodd" d="M3.375 7.85156C3.57391 7.85156 3.76468 7.93058 3.90533 8.07123C4.04598 8.21188 4.125 8.40265 4.125 8.60156C4.125 9.92831 4.89 11.1681 5.93625 12.2286C6.96975 13.2771 8.181 14.0511 8.8515 14.4396C8.89024 14.4621 8.93452 14.4734 8.97932 14.472C9.02412 14.4707 9.06766 14.4569 9.105 14.4321C9.7755 14.0031 10.9995 13.1541 12.048 12.0741C13.1205 10.9686 13.875 9.75806 13.875 8.60156C13.875 8.40265 13.954 8.21188 14.0947 8.07123C14.2353 7.93058 14.4261 7.85156 14.625 7.85156C14.8239 7.85156 15.0147 7.93058 15.1553 8.07123C15.296 8.21188 15.375 8.40265 15.375 8.60156C15.375 10.3663 14.2635 11.9436 13.1243 13.1181C11.9603 14.3181 10.6268 15.2398 9.91275 15.6958C9.64382 15.8685 9.33253 15.9637 9.01302 15.9711C8.69352 15.9786 8.37815 15.8978 8.1015 15.7378C7.37625 15.3186 6.036 14.4666 4.86825 13.2816C3.7125 12.1093 2.625 10.5088 2.625 8.60231C2.625 8.4034 2.70402 8.21264 2.84467 8.07198C2.98532 7.93133 3.17609 7.85231 3.375 7.85231V7.85156Z" fill="#888888"/>
</svg>
