<svg width="40" height="40" viewBox="0 0 40 40" fill="none" xmlns="http://www.w3.org/2000/svg">
<rect width="40" height="40" rx="20" fill="#F2F3F2"/>
<path d="M26.0494 16.5481C26.0494 14.8115 25.373 13.1459 24.1691 11.9179C22.9651 10.6899 21.3323 10 19.6296 10C17.927 10 16.2941 10.6899 15.0902 11.9179C13.8862 13.1459 13.2099 14.8115 13.2099 16.5481C13.2099 24.1877 10 26.3704 10 26.3704H29.2593C29.2593 26.3704 26.0494 24.1877 26.0494 16.5481Z" stroke="#37A35E" stroke-width="2" stroke-linecap="round" stroke-linejoin="round"/>
<path d="M21.8519 30C21.6561 30.2929 21.3752 30.536 21.0372 30.705C20.6992 30.874 20.316 30.963 19.9259 30.963C19.5359 30.963 19.1527 30.874 18.8146 30.705C18.4766 30.536 18.1957 30.2929 18 30" stroke="#37A35E" stroke-width="2" stroke-linecap="round" stroke-linejoin="round"/>
</svg>
