<svg width="36" height="36" viewBox="0 0 36 36" fill="none" xmlns="http://www.w3.org/2000/svg">
<rect x="0.5" y="0.5" width="34.3723" height="34.3711" rx="17.1855" fill="#30754A" stroke="#E6F5E8"/>
<path d="M24.0836 17.6942C24.0836 17.977 23.9752 18.2504 23.7724 18.4484C23.5743 18.6512 23.3008 18.7643 23.0178 18.7643H18.7545V23.026C18.7545 23.3089 18.6413 23.5823 18.4386 23.7803C18.2405 23.9783 17.9717 24.0915 17.6887 24.0915C17.4057 24.0915 17.1322 23.9783 16.9341 23.7803C16.7314 23.5823 16.6182 23.3089 16.6182 23.026V18.7643H12.3549C12.0719 18.7643 11.7984 18.6512 11.6003 18.4484C11.4022 18.2504 11.2891 17.977 11.2891 17.6942C11.2891 17.4113 11.4022 17.1426 11.6003 16.9399C11.7984 16.7419 12.0719 16.6287 12.3549 16.6287H16.6182V12.367C16.6182 12.0842 16.7314 11.8107 16.9341 11.6127C17.1322 11.41 17.4057 11.2969 17.6887 11.2969C17.9717 11.2969 18.2405 11.41 18.4386 11.6127C18.6413 11.8107 18.7545 12.0842 18.7545 12.367V16.6287H23.0178C23.3008 16.6287 23.5743 16.7419 23.7724 16.9399C23.9752 17.1426 24.0836 17.4113 24.0836 17.6942Z" fill="white"/>
</svg>
