<svg width="24" height="24" viewBox="0 0 24 24" fill="none" xmlns="http://www.w3.org/2000/svg">
<path d="M9.5355 21.7817C8.88695 21.7817 8.26496 21.524 7.80637 21.0654C7.34778 20.6068 7.09014 19.9848 7.09014 19.3363C7.09014 18.6877 7.34778 18.0658 7.80637 17.6072C8.26496 17.1486 8.88695 16.8909 9.5355 16.8909C10.1841 16.8909 10.806 17.1486 11.2646 17.6072C11.7232 18.0658 11.9809 18.6877 11.9809 19.3363C11.9809 19.9848 11.7232 20.6068 11.2646 21.0654C10.806 21.524 10.1841 21.7817 9.5355 21.7817ZM18.0943 21.7817C17.4457 21.7817 16.8237 21.524 16.3651 21.0654C15.9065 20.6068 15.6489 19.9848 15.6489 19.3363C15.6489 18.6877 15.9065 18.0658 16.3651 17.6072C16.8237 17.1486 17.4457 16.8909 18.0943 16.8909C18.7428 16.8909 19.3648 17.1486 19.8234 17.6072C20.282 18.0658 20.5396 18.6877 20.5396 19.3363C20.5396 19.9848 20.282 20.6068 19.8234 21.0654C19.3648 21.524 18.7428 21.7817 18.0943 21.7817ZM2.15295 4.56997C1.84772 4.56012 1.55829 4.43195 1.34586 4.21256C1.13342 3.99316 1.01465 3.69975 1.01465 3.39436C1.01465 3.08897 1.13342 2.79556 1.34586 2.57616C1.55829 2.35677 1.84772 2.22859 2.15295 2.21875H3.56026C4.66312 2.21875 5.61681 2.98415 5.85645 4.06011L7.38847 10.9585C7.62812 12.0344 8.58181 12.7998 9.68467 12.7998H18.8695L20.6326 5.74496H9.2066C8.90425 5.73117 8.61885 5.60135 8.40976 5.3825C8.20068 5.16366 8.084 4.87264 8.084 4.56997C8.084 4.2673 8.20068 3.97628 8.40976 3.75743C8.61885 3.53859 8.90425 3.40877 9.2066 3.39497H20.6326C20.99 3.39486 21.3427 3.47625 21.664 3.63295C21.9853 3.78964 22.2666 4.01751 22.4865 4.29925C22.7065 4.58098 22.8593 4.90915 22.9334 5.25882C23.0075 5.60849 23.0009 5.97045 22.9141 6.31718L21.151 13.3696C21.0239 13.8785 20.7303 14.3302 20.3169 14.653C19.9034 14.9758 19.394 15.1511 18.8695 15.1511H9.68467C8.61457 15.1512 7.57643 14.7864 6.74169 14.1168C5.90695 13.4472 5.32555 12.513 5.0935 11.4683L3.56026 4.56997H2.15295Z" fill="#181725"/>
</svg>
