<svg width="273" height="239" viewBox="0 0 273 239" fill="none" xmlns="http://www.w3.org/2000/svg">
<path d="M270.883 231.271C270.883 231.271 247.787 237.305 219.296 237.305C190.805 237.305 167.709 231.271 167.709 231.271C167.709 231.271 190.805 225.239 219.296 225.239C247.787 225.239 270.883 231.271 270.883 231.271Z" fill="#CBB59B"/>
<path d="M252.083 65.8293L263.352 66.5195C263.352 66.5195 268.383 41.3635 265.332 34.1524C264.873 33.0625 264.229 32.3848 263.352 32.2624C259.908 31.7853 257.018 40.7382 255.031 49.5171C253.161 57.754 252.083 65.8293 252.083 65.8293Z" fill="#FAB663"/>
<path d="M258.416 42.3877C260.291 41.0736 262.467 40.1924 264.727 39.8326C262.947 41.581 260.908 42.5101 258.416 42.3877Z" fill="#F7923D"/>
<path d="M257.742 48.798C259.617 47.4839 261.793 46.6027 264.054 46.2428C262.274 47.9905 260.234 48.9197 257.742 48.798Z" fill="#F7923D"/>
<path d="M257.011 55.4972C258.885 54.1824 261.062 53.3019 263.323 52.9413C261.543 54.6897 259.502 55.6189 257.011 55.4972Z" fill="#F7923D"/>
<path d="M255.031 49.5195C255.321 48.552 255.592 47.5779 255.87 46.6104C256.701 43.7463 257.644 40.8498 259.378 38.4245C260.836 36.3995 262.938 34.7293 265.332 34.1548C264.873 33.065 264.229 32.3873 263.352 32.2649C259.908 31.7878 257.018 40.7407 255.031 49.5195Z" fill="#F7923D"/>
<path d="M246.93 101.348L251.718 58.3552L266.616 59.6051L262.076 101.348H246.93Z" fill="#C07E53"/>
<path d="M271.023 91.505C271.023 94.0778 264.343 95.0497 259.776 94.9501C255.389 95.0445 249.068 94.1523 248.569 91.8088C248.54 91.7092 248.529 91.6097 248.529 91.505C248.529 89.3311 251.022 77.068 252.193 71.4246C252.558 69.6946 252.792 68.5826 252.792 68.5826H266.756C266.756 68.5826 266.99 69.6946 267.354 71.4246C268.526 77.068 271.023 89.3311 271.023 91.505Z" fill="#F04242"/>
<path d="M267.354 71.4246C266.991 69.6946 266.756 68.5826 266.756 68.5826H264.273H252.792C252.792 68.5826 252.558 69.6946 252.194 71.4246H264.918C266.318 77.6881 268.348 87.3379 267.947 88.8378C267.384 90.9866 257.613 94.7452 248.569 91.8088C249.069 94.1523 255.389 95.0445 259.776 94.9501C264.343 95.0497 271.023 94.0778 271.023 91.505C271.023 89.3311 268.526 77.068 267.354 71.4246Z" fill="#EF2D2E"/>
<path d="M267.948 69.7383H251.601V66.007H267.948V69.7383Z" fill="#F04242"/>
<path d="M264.747 83.5117H252.308V77.9443H264.747V83.5117Z" fill="white"/>
<path d="M180.862 71.2745L192.102 76.4843L197.183 64.8863L208.561 69.425C208.561 69.425 200.855 90.745 196.723 91.4817C193.755 92.0112 178.949 80.8726 178.949 80.8726L180.862 71.2745Z" fill="#F68672"/>
<path d="M166.275 74.1761C166.463 74.4527 166.696 74.6813 166.96 74.8796L166.968 74.8841C167.581 75.3619 168.365 75.6583 169.114 75.9253C169.952 76.2247 170.791 76.5646 171.624 76.9119C172.327 77.201 173.021 77.4915 173.717 77.7629C174.125 77.9296 174.527 78.0778 174.936 78.2238L177.225 79.8505C177.225 79.8505 177.855 80.2295 178.949 80.8711L180.57 78.7975L180.562 78.7931L182.503 76.3102L183.578 74.932L181.553 73.5501L179.727 72.3075C179.719 69.2989 179.323 66.1694 178.149 63.3996C177.958 62.9432 177.731 62.4985 177.518 62.0561L177.514 62.0435C177.191 61.4012 176.888 60.7582 176.679 60.0732C176.295 58.7916 176.309 57.4325 176.158 56.0985C176.133 55.8913 176.1 55.6804 176.061 55.4717C176.004 55.12 175.901 54.7505 175.63 54.5271L175.588 54.5006C175.234 54.2491 174.714 54.3258 174.36 54.5846L174.212 54.7122C173.934 54.9806 173.754 55.3456 173.599 55.7033L173.55 55.8463C172.779 57.7865 172.677 59.9781 173.248 61.9786C173.321 62.2367 173.41 62.5177 173.327 62.7655C173.25 62.9904 173.047 63.1548 172.85 63.292C172.041 63.8347 171.077 64.098 170.095 64.1724C169.61 64.2108 169.11 64.2005 168.615 64.1621L168.601 64.1599C167.995 64.109 167.353 64.0301 166.82 64.2978C166.394 64.5198 166.13 64.918 165.961 65.3811L165.931 65.457C165.804 65.8191 165.74 66.2151 165.695 66.5845C165.67 66.7799 165.651 66.9739 165.641 67.1781C165.494 68.7142 165.487 70.2657 165.623 71.8061C165.69 72.6364 165.805 73.4926 166.275 74.1761Z" fill="#F36269"/>
<path d="M175.628 54.5256C175.903 54.7483 176.002 55.1193 176.065 55.4725C176.101 55.6804 176.132 55.8935 176.159 56.1015C176.31 57.4318 176.298 58.7893 176.68 60.0702C176.886 60.7582 177.192 61.402 177.518 62.045V62.0539C177.734 62.4978 177.959 62.9417 178.152 63.3989C179.324 66.1701 179.719 69.2974 179.727 72.3061L183.581 74.9335L182.505 76.3109L180.569 78.8004L178.95 80.8711L176.262 76.3353C176.689 73.4623 177.655 67.8138 177.133 64.2336C177.039 63.5958 176.9 63.0302 176.702 62.5501C176.468 61.9978 176.211 61.4403 175.968 60.8792C175.495 59.7878 175.094 58.678 175.125 57.5018L175.129 57.316C175.135 56.6693 175.073 55.8913 174.575 55.6819C174.512 55.6546 174.448 55.6369 174.377 55.6273C174.092 55.5949 173.829 55.7571 173.549 55.8471L173.598 55.707C173.753 55.3456 173.934 54.9836 174.215 54.7129L174.361 54.5869C174.715 54.3251 175.235 54.2491 175.587 54.5035L175.628 54.5256Z" fill="#F68672"/>
<path d="M172.029 70.2402C171.998 71.8551 172.43 73.4597 173.14 74.9102C172.105 73.7148 171.284 72.2798 171.077 70.7121C170.87 69.1436 171.353 67.4358 172.553 66.4049C172.77 66.2183 173.044 65.9875 173.301 65.9211C173.312 66.4993 172.629 67.2986 172.433 67.8775C172.178 68.6378 172.044 69.4386 172.029 70.2402Z" fill="#F14568"/>
<path d="M181.595 72.9527C181.537 75.4098 181.472 77.6345 181.427 79.1116C181.394 80.1366 180.557 80.9492 179.531 80.9492H169.58C168.554 80.9492 167.716 80.1366 167.684 79.1116C167.638 77.6345 167.574 75.4098 167.516 72.9527C167.445 69.9596 167.393 66.6324 167.406 63.9106C167.426 60.989 167.516 58.7768 167.742 58.4162C168.503 57.2356 171.096 56.0557 171.096 56.0557L171.708 52.6445H177.397L178.015 56.0557C178.015 56.0557 180.608 57.2356 181.368 58.4162C181.595 58.7768 181.685 60.989 181.698 63.9106C181.717 66.6324 181.666 69.9596 181.595 72.9527Z" fill="#D1F0FC"/>
<path d="M177.548 53.4727H171.561C171.18 53.4727 170.871 53.1637 170.871 52.7825V52.3938C170.871 52.0133 171.18 51.7043 171.561 51.7043H177.548C177.929 51.7043 178.238 52.0133 178.238 52.3938V52.7825C178.238 53.1637 177.929 53.4727 177.548 53.4727Z" fill="#363950"/>
<path d="M181.595 72.9531H167.516C167.445 69.96 167.393 66.6328 167.406 63.911H181.698C181.717 66.6328 181.666 69.96 181.595 72.9531Z" fill="white"/>
<path d="M166.152 74.7161C168.595 75.396 171.537 74.3724 171.537 74.3724C171.713 73.8489 171.802 73.2376 171.817 72.5828C171.831 72.3077 171.827 72.0245 171.813 71.734C171.781 71.0925 171.705 70.4214 171.588 69.7474C171.541 69.4524 171.486 69.1553 171.426 68.861C171.262 68.0779 171.069 67.3081 170.864 66.5957C170.781 66.2882 170.693 65.994 170.608 65.7116C170.37 64.9476 170.144 64.2891 169.966 63.7987C169.761 63.2302 169.624 62.8895 169.624 62.8895C167.299 62.9455 164.156 64.8635 164.156 64.8635C163.957 65.7293 163.918 66.6525 163.989 67.5684C164.256 71.1691 166.152 74.7161 166.152 74.7161Z" fill="#F68672"/>
<path d="M167.112 66.9509C167.112 66.9509 167.438 66.9671 167.919 66.9583C168.404 66.948 169.038 66.9266 169.718 66.8248C170.131 66.7636 170.518 66.6803 170.864 66.594C170.781 66.2865 170.692 65.9923 170.608 65.7098C170.285 65.6796 169.928 65.6826 169.557 65.7349C168.804 65.8492 168.171 66.1582 167.752 66.4362C167.332 66.7142 167.112 66.9509 167.112 66.9509Z" fill="#D03B58"/>
<path d="M168.023 69.9421C168.023 69.9421 168.334 69.9849 168.791 70.0063C169.251 70.0254 169.858 70.035 170.51 69.9539C170.896 69.906 171.261 69.8263 171.587 69.7474C171.54 69.4525 171.486 69.1553 171.425 68.8611C171.105 68.8227 170.747 68.8109 170.371 68.8596C169.663 68.9496 169.057 69.2246 168.651 69.4731C168.243 69.7261 168.023 69.9421 168.023 69.9421Z" fill="#D03B58"/>
<path d="M168.002 72.8297C168.002 72.8297 168.326 72.8776 168.812 72.9019C169.3 72.9226 169.948 72.927 170.643 72.8311C171.068 72.7722 171.467 72.6807 171.817 72.5826C171.831 72.3076 171.827 72.0244 171.813 71.7339C171.424 71.6852 170.97 71.6734 170.491 71.7405C169.749 71.8437 169.115 72.1181 168.681 72.3666C168.244 72.6151 168.002 72.8297 168.002 72.8297Z" fill="#D03B58"/>
<path d="M163.989 67.5664C164.374 66.8858 164.823 66.2501 165.425 65.759C165.975 65.3077 166.626 65.0017 167.277 64.7215C168.022 64.4 168.805 64.0254 169.598 63.8381C169.701 63.8115 169.828 63.8041 169.966 63.7968C169.761 63.2282 169.624 62.8875 169.624 62.8875C167.299 62.9436 164.156 64.8616 164.156 64.8616C163.957 65.7273 163.918 66.6505 163.989 67.5664Z" fill="#F9AA7F"/>
<path d="M220.917 223.736L219.212 215.612L220.006 200.043L208.039 200.504L206.926 217.713L210.486 224.138L219.741 225.953L220.917 223.736Z" fill="#F36269"/>
<path d="M187.397 228.281L221.428 227.884C221.36 227.25 221.179 225.665 220.917 223.739C218.575 223.888 215.485 223.821 213.819 222.718C211.747 221.347 210.463 217.126 209.895 214.793L204.291 214.717C203.757 215.986 202.376 218.978 200.725 220.388C198.598 222.212 190.628 225.554 188.462 226.618C187.721 226.983 187.472 227.68 187.397 228.281Z" fill="#282A3E"/>
<path d="M187.432 231.27L187.397 228.277L221.427 227.883L221.467 231.27H187.432Z" fill="#DCDDDA"/>
<path d="M204.11 203.478C205.259 203.663 207.208 203.688 209.521 203.626C212.624 203.531 216.383 203.274 219.728 202.998C220.732 202.92 221.704 202.837 222.605 202.753C223.559 202.672 224.429 202.59 225.199 202.514C227.16 202.329 228.426 202.196 228.426 202.196L225.574 158.482C225.574 158.482 234.491 129.236 236.451 120.655C236.024 117.625 235.238 113.938 234.385 110.389L228.486 111.504L206.926 108.486C206.119 121.795 206.727 153.62 206.501 155.608C206.469 155.901 206.451 156.297 206.445 156.791L206.441 156.83L204.11 203.478Z" fill="#A3889F"/>
<path d="M209.71 166.417C211.396 168.152 213.669 167.397 214.897 164.925C215.554 163.601 215.963 162.089 215.869 160.551C215.774 159.014 215.136 157.456 214.009 156.483C212.882 155.511 211.255 155.223 210.049 155.948C208.621 156.806 208.087 158.763 207.998 160.575C207.925 162.055 208.079 163.6 208.719 164.942C209.012 165.554 209.348 166.043 209.71 166.417Z" fill="#B99EB2"/>
<path d="M245.642 222.717L243.213 214.779L242.607 199.201L230.73 200.734L231.166 217.974L235.288 224.053L244.669 225.031L245.642 222.717Z" fill="#F68672"/>
<path d="M212.665 230.25L246.522 226.8C246.397 226.175 246.075 224.612 245.641 222.717C243.322 223.076 240.238 223.286 238.48 222.337C236.295 221.158 234.637 217.07 233.86 214.797L228.273 215.224C227.854 216.536 226.748 219.639 225.231 221.192C223.274 223.2 215.638 227.244 213.576 228.497C212.871 228.927 212.684 229.644 212.665 230.25Z" fill="#363950"/>
<path d="M212.967 233.223L212.664 230.245L246.522 226.798L246.839 229.915L212.967 233.223Z" fill="white"/>
<path d="M223.971 203.424C225.132 203.497 227.075 203.333 229.37 203.046C232.449 202.651 236.165 202.028 239.468 201.43C240.459 201.254 241.419 201.077 242.308 200.906C243.248 200.732 244.107 200.566 244.866 200.416C246.799 200.042 248.047 199.785 248.047 199.785L240.96 156.555C240.96 156.555 246.994 126.582 248.11 117.852C247.391 114.876 246.251 111.284 245.057 107.835L239.294 109.517L219.296 109.239C219.786 122.563 221.73 153.547 221.699 155.549C221.696 155.844 221.715 156.238 221.758 156.732V156.771L223.971 203.424Z" fill="#B99EB2"/>
<path d="M236.215 157.902L244.865 200.414C246.799 200.039 248.047 199.783 248.047 199.783L240.96 156.553C240.96 156.553 246.994 126.579 248.11 117.849C247.391 114.874 246.251 111.282 245.056 107.832L239.294 109.515C240.126 114.005 241.668 122.549 241.503 124.046C241.319 125.668 238.064 146.248 236.756 154.509C236.42 156.605 236.215 157.902 236.215 157.902Z" fill="#A3889F"/>
<path d="M225.943 165.994C227.789 167.556 229.977 166.585 230.959 164.005C231.485 162.623 231.746 161.079 231.502 159.557C231.26 158.037 230.472 156.547 229.256 155.689C228.04 154.831 226.393 154.702 225.263 155.541C223.924 156.534 223.583 158.535 223.671 160.346C223.743 161.826 224.045 163.348 224.813 164.622C225.164 165.203 225.545 165.657 225.943 165.994Z" fill="#D0B6C7"/>
<path d="M202.243 43.4037C202.591 46.4573 205.203 48.7329 207.826 50.3361C218.825 57.0856 233.479 57.3806 244.739 51.0786C247.609 49.4696 250.339 47.3828 251.895 44.4825C252.066 44.164 252.219 43.8343 252.349 43.4981C253.457 40.7571 253.362 37.4624 251.541 35.169C250.373 33.6957 248.658 32.7872 247.202 31.6029C245.747 30.4238 244.444 28.7086 244.674 26.8459C244.957 24.4876 247.545 22.8897 247.781 20.5263C247.957 18.7403 246.714 17.1195 245.334 15.9698C242.121 13.3048 241.019 9.95107 238.561 6.82667C235.778 3.29005 230.992 0.950249 226.629 0.248234C223.016 -0.341694 219.185 0.0948715 215.955 1.81599C212.718 3.53784 210.154 6.60251 209.37 10.1812C208.798 12.7923 209.14 15.6572 207.896 18.0213C207.136 19.4651 205.833 20.603 205.243 22.1235C204.901 23.0018 204.819 23.9154 204.878 24.8409C205.02 27.087 205.951 29.4335 205.791 31.7202C205.509 35.829 201.771 39.3125 202.243 43.4037Z" fill="#FABF75"/>
<path d="M205.805 42.654C205.805 42.654 203.381 43.4777 202.202 46.0033C201.022 48.5297 191.028 66.5402 191.028 66.5402L207.831 72.4336L205.805 42.654Z" fill="#88C036"/>
<path d="M190.148 68.0385L192.016 63.4628L208.489 70.0523L207.138 74.4414L190.148 68.0385Z" fill="#61AE32"/>
<path d="M249.482 114.634C249.482 114.634 218.739 117.465 205.805 114.821L207.831 79.0249L205.805 42.6521L211.461 41.0069L219.306 38.721L223.207 39.2999L229.467 37.4512C229.467 37.4512 232.234 38.2711 235.697 39.6022C239.549 41.0807 244.257 43.1882 246.931 45.4867L249.482 114.634Z" fill="#88C036"/>
<path d="M235.696 39.6007C233.278 42.0061 227.693 46.9851 222.578 47.6495C217.361 48.3198 213.13 43.3349 211.46 41.0062L214.413 40.1486L219.308 38.7231L223.204 39.2976L229.466 37.4526C229.466 37.4526 230.678 37.8139 232.497 38.4392C233.433 38.7622 234.522 39.1494 235.696 39.6007Z" fill="#F68672"/>
<path d="M235.696 39.6007C233.278 42.0061 227.693 46.9851 222.578 47.6495C217.361 48.3198 213.13 43.3349 211.46 41.0062L214.413 40.1486C215.82 42.1543 219.102 46.314 222.127 46.14C225.268 45.9594 230.446 40.6773 232.497 38.4392C233.433 38.7622 234.522 39.1494 235.696 39.6007Z" fill="#61AE32"/>
<path d="M231.419 38.0754C231.419 38.0754 223.237 41.8576 222.089 41.4313C220.941 41.011 219.307 38.7251 219.307 38.7251C219.546 38.4308 221.211 37.2805 221.127 36.3867C220.933 34.3249 220.178 31.4513 220.178 31.4513L227.093 29.0702C227.093 29.0702 227.379 31.0486 227.779 33.1429C228.182 35.2637 230.981 37.7509 231.419 38.0754Z" fill="#F68672"/>
<path d="M227.777 33.1418C225.877 34.5606 223.542 36.2404 222.779 36.5007C222.155 36.7109 221.574 36.5848 221.129 36.3886C220.932 34.3253 220.177 31.4553 220.177 31.4553L227.091 29.0735C227.091 29.0735 227.381 31.0542 227.777 33.1418Z" fill="#F36269"/>
<path d="M230.904 9.6806C227.11 5.33946 220.752 4.03648 215.759 6.91902C214.611 7.58121 213.694 8.33408 213.282 9.16293C211.632 12.4761 209.281 24.6692 211.809 30.5294C214.336 36.3903 218.314 35.5873 219.731 35.1744C221.148 34.7621 227.805 31.9858 229.344 29.8148C230.884 27.6432 234.183 16.4375 233.448 13.5174C233.202 12.5425 232.17 11.1303 230.904 9.6806Z" fill="#F9AA7F"/>
<path d="M231.357 8.80247C227.564 4.4606 221.206 3.15686 216.212 6.04013C215.065 6.70306 214.148 7.4552 213.735 8.28405C212.087 11.598 209.736 23.7903 212.263 29.6505C214.791 35.5114 218.768 34.7084 220.185 34.2954C221.601 33.8832 228.259 31.1069 229.798 28.936C231.337 26.7643 234.637 15.5586 233.902 12.6392C233.657 11.6636 232.623 10.2515 231.357 8.80247Z" fill="#F68672"/>
<path d="M229.99 23.7543C230.346 23.5854 232.144 21.2426 233.397 22.6762C234.649 24.109 234.978 26.4709 233.786 27.7908C232.698 28.995 231.184 30.2929 229.344 29.8172L229.99 23.7543Z" fill="#F68672"/>
<path d="M233.35 24.4754C233.422 24.791 233.37 25.1177 233.268 25.4267C232.836 26.7407 231.585 27.7304 230.387 28.6484C230.752 28.0143 230.893 27.2938 230.83 26.5888C230.808 26.3433 230.762 26.0992 230.763 25.8544C230.767 24.8648 232.927 22.6105 233.35 24.4754Z" fill="#F36269"/>
<path d="M229.786 29.0195L229.854 28.9797C229.897 28.9524 229.968 28.917 230.047 28.861C230.207 28.7504 230.429 28.5726 230.64 28.3072C230.849 28.0417 231.04 27.6878 231.135 27.266C231.22 26.8456 231.211 26.3538 231.004 25.8782L230.92 25.7034L230.897 25.6614L230.894 25.6562L230.894 25.6569H230.893L230.896 25.6503L230.917 25.612L230.957 25.5375L231.043 25.3922C231.157 25.2005 231.28 25.0206 231.407 24.8532C231.534 24.6865 231.664 24.5324 231.794 24.393C231.925 24.2537 232.05 24.1231 232.174 24.0265C232.298 23.9299 232.433 23.8672 232.56 23.8518C232.687 23.8377 232.806 23.8702 232.886 23.9137C232.967 23.9579 233.011 24.014 233.029 24.056L233.049 24.1224L233.047 24.0516C233.04 24.0059 233.008 23.9358 232.927 23.8702C232.847 23.8075 232.722 23.747 232.554 23.7404C232.387 23.736 232.206 23.7935 232.044 23.8879C231.88 23.983 231.733 24.1025 231.577 24.2337C231.423 24.3665 231.266 24.5154 231.116 24.6828C230.965 24.8495 230.819 25.0331 230.687 25.2329L230.589 25.3856L230.543 25.4637L230.481 25.5744L230.438 25.6518L230.478 25.7307L230.537 25.8442L230.609 25.9954C230.788 26.4084 230.824 26.8383 230.784 27.2232C230.736 27.6081 230.609 27.9495 230.456 28.2194C230.304 28.4901 230.131 28.6899 230.001 28.8219L229.843 28.9679L229.786 29.0195Z" fill="#D03B58"/>
<path d="M218.602 24.0917C218.907 24.0431 219.221 23.9435 219.517 24.0328C219.083 24.6618 218.393 25.1086 217.642 25.2473L217.466 25.2539C217.396 25.2377 217.338 25.1898 217.283 25.1426C216.942 24.841 216.659 24.4708 216.459 24.0608C216.419 23.9775 216.381 23.8904 216.378 23.7983C216.365 23.4922 216.554 23.5955 216.715 23.6972C216.9 23.8159 217.102 23.9111 217.311 23.9811C217.725 24.119 218.171 24.1603 218.602 24.0917Z" fill="#F36269"/>
<path d="M217.611 25.0675C217.464 24.8735 217.29 24.6995 217.137 24.5085C216.949 24.2725 216.78 24.0218 216.64 23.7541C217.718 23.2844 217.902 22.2896 218.075 21.1555C218.153 20.6437 218.109 20.115 217.949 19.6232C217.864 19.3643 217.748 19.1166 217.605 18.8858C217.531 18.7692 217.451 18.6564 217.364 18.5488C217.279 18.4441 217.183 18.3769 217.07 18.3025C217.116 18.3806 217.14 18.4662 217.18 18.5451C217.283 18.7523 217.395 18.9477 217.476 19.1652C217.557 19.3828 217.619 19.6077 217.663 19.8363C217.749 20.2927 217.761 20.7647 217.688 21.2241C217.617 21.6746 217.463 22.1141 217.218 22.4998C216.939 22.9393 216.515 23.3486 216.027 23.5418C216.023 23.5432 216.53 24.4252 216.581 24.4989C216.716 24.6899 216.868 24.8684 217.037 25.0291C217.204 25.1862 217.395 25.3713 217.628 25.4074C217.702 25.4192 217.779 25.417 217.847 25.3868L217.753 25.2747L217.718 25.2216L217.611 25.0675Z" fill="#F14568"/>
<path d="M223.586 26.8597C221.232 28.1597 218.303 28.3706 215.786 27.4209C217.014 28.2821 218.38 28.8315 219.878 28.7401C221.375 28.6479 222.472 27.864 223.586 26.8597Z" fill="#F14568"/>
<path d="M221.265 29.4583C220.282 30.0571 219.002 30.1375 217.952 29.667C218.351 30.1743 218.911 30.4937 219.556 30.4922C220.202 30.4914 220.869 29.9671 221.265 29.4583Z" fill="#F14568"/>
<path d="M212.211 15.2174C212.211 15.2174 213.97 13.8694 215.067 13.9778C216.163 14.0855 216.489 15.0921 216.057 15.2904C215.624 15.4895 212.211 15.2174 212.211 15.2174Z" fill="#FCD18A"/>
<path d="M227.707 16.9688C227.707 16.9688 225.185 14.7373 223.484 14.4084C221.783 14.0796 221.143 15.0729 221.782 15.4725C222.42 15.8722 227.707 16.9688 227.707 16.9688Z" fill="#FCD18A"/>
<path d="M223.223 24.7299C223.29 25.252 224.462 25.5308 225.84 25.3523C227.218 25.1738 228.28 24.606 228.213 24.0847C228.145 23.5626 226.973 23.2846 225.596 23.4623C224.218 23.6408 223.155 24.2086 223.223 24.7299Z" fill="#F36269"/>
<path d="M209.806 22.0159C209.635 22.3758 210.375 23.0852 211.46 23.5999C212.545 24.1146 213.562 24.2407 213.733 23.8808C213.904 23.5202 213.163 22.8116 212.079 22.2969C210.994 21.7814 209.976 21.6561 209.806 22.0159Z" fill="#F36269"/>
<path d="M226.012 18.4789C225.763 18.8838 225.132 19.1197 224.699 19.2392C224.539 18.9678 224.315 18.7835 224.047 18.7333C223.361 18.6065 222.639 19.397 222.435 20.4994C222.231 21.6011 222.622 22.5981 223.308 22.7249C223.995 22.8518 224.717 22.0613 224.921 20.9588C224.984 20.6174 224.99 20.287 224.947 19.9884C225.556 19.6248 226.012 18.4789 226.012 18.4789Z" fill="#121414"/>
<path d="M223.679 20.8752C223.679 20.8752 224.332 21.2395 225.027 21.1082C225.722 20.9769 226.196 20.3988 226.196 20.3988C226.196 20.3988 225.544 20.0345 224.848 20.1658C224.154 20.297 223.679 20.8752 223.679 20.8752Z" fill="white"/>
<path d="M212.651 17.4883C212.723 17.8644 213.13 18.2242 213.422 18.4388C213.621 18.281 213.842 18.2058 214.058 18.2464C214.612 18.3481 214.928 19.1519 214.764 20.0412C214.6 20.9298 214.019 21.5677 213.465 21.4659C212.912 21.3641 212.595 20.5604 212.76 19.6711C212.81 19.396 212.901 19.1445 213.019 18.9321C212.665 18.4823 212.651 17.4883 212.651 17.4883Z" fill="#121414"/>
<path d="M213.717 19.965C213.717 19.965 213.121 20.0513 212.635 19.7519C212.149 19.4525 211.958 18.881 211.958 18.881C211.958 18.881 212.555 18.794 213.041 19.0934C213.526 19.3928 213.717 19.965 213.717 19.965Z" fill="white"/>
<path d="M234.528 25.0742C234.207 24.3051 233.746 23.4578 232.957 23.1894C232.168 22.9202 231.41 23.1577 230.686 23.5714C231.137 21.2168 231.998 18.5643 232.778 16.2968C228.3 15.2733 224.301 12.3037 222.028 8.31215C222.021 9.80024 222.636 11.281 223.695 12.3274C221.829 12.3045 220.007 11.278 219.019 9.69627C217.154 11.7485 214.534 13.213 211.762 13.2204C211.949 9.214 214.226 5.3094 217.787 3.4644C221.348 1.61866 225.799 1.69905 229.373 3.52046C232.946 5.34112 235.593 8.81507 236.574 12.7042C237.553 16.5933 236.483 21.5723 234.528 25.0742Z" fill="#FABF75"/>
<path d="M204.877 24.8428C206.291 23.4343 207.318 21.5775 208.107 19.7207C209.274 16.9437 210.082 13.9852 211.75 11.4795C213.542 8.78571 216.212 6.80575 218.824 4.88922C219.455 5.5905 220.091 6.29178 220.728 6.99379C221.087 6.15609 221.441 5.31985 221.8 4.48289C225.272 9.15733 230.531 12.4639 236.249 13.5663C235.335 15.4113 237.063 17.4451 238.719 18.6596C240.375 19.8793 242.362 21.4065 242.097 23.4461C241.872 25.2203 240.016 26.3287 239.349 27.9849C238.341 30.4906 240.381 33.2375 242.716 34.5936C245.05 35.9548 247.815 36.6148 249.818 38.4244C251.257 39.7215 252.135 41.5783 252.348 43.5C253.456 40.759 253.361 37.4643 251.54 35.171C251.428 35.0294 251.31 34.8937 251.192 34.7639C250.048 33.5199 248.516 32.677 247.201 31.6048C245.746 30.4257 244.443 28.7105 244.673 26.8478C244.956 24.4896 247.543 22.8916 247.779 20.5282C247.956 18.7422 246.712 17.1214 245.333 15.9718C242.12 13.3068 241.018 9.953 238.56 6.82859C235.777 3.29198 230.991 0.952179 226.628 0.250164C223.015 -0.339764 219.184 0.0968018 215.954 1.81792C212.717 3.53977 210.152 6.60444 209.369 10.1831C209.281 10.5894 209.215 10.9964 209.163 11.4145C208.867 13.6725 208.944 16.0241 207.895 18.0232C207.135 19.4671 205.832 20.6049 205.242 22.1254C204.9 23.0037 204.818 23.9173 204.877 24.8428Z" fill="#FCD18A"/>
<path d="M209.163 11.4163C209.605 11.2105 210.024 10.9628 210.406 10.6796C212.181 9.3707 213.436 7.49029 214.846 5.79351C216.248 4.08935 217.969 2.4737 220.133 2.02609C220.209 2.56293 220.286 3.09903 220.369 3.63586C221.76 2.61013 223.463 2.00249 225.197 1.91401C228.486 6.59435 233.549 9.99012 239.126 11.2577C238.548 12.855 239.698 14.5407 240.947 15.6903C242.192 16.8399 243.689 17.9365 244.083 19.5809C244.561 21.5734 243.241 23.5304 243.028 25.5642C242.792 27.8686 244.024 30.1266 245.752 31.6648C247.314 33.0622 249.247 33.97 251.193 34.7656C250.049 33.5216 248.516 32.6787 247.202 31.6066C245.746 30.4274 244.443 28.7122 244.673 26.8495C244.956 24.4913 247.544 22.8933 247.78 20.5299C247.956 18.7439 246.713 17.1231 245.333 15.9735C242.12 13.3085 241.018 9.95472 238.56 6.83031C235.777 3.29369 230.991 0.953892 226.629 0.251881C223.015 -0.338047 219.184 0.0985184 215.954 1.81963C212.717 3.54148 210.153 6.60616 209.369 10.1848C209.281 10.5911 209.215 10.9981 209.163 11.4163Z" fill="#FDE498"/>
<path d="M253.519 90.4788C253.511 90.5466 253.504 90.6108 253.492 90.6786C253.395 91.2663 253.244 91.8533 253.036 92.4211C252.624 93.5479 251.997 94.595 251.154 95.4143C250.934 95.6303 250.702 95.8302 250.45 96.0057C250.25 96.1576 250.039 96.2896 249.815 96.4135C248.62 97.069 247.273 97.2608 245.934 97.0971C245.631 97.0609 245.327 97.0049 245.024 96.9289C243.936 96.6649 242.881 96.1775 241.954 95.5227C241.514 95.2108 241.103 94.8671 240.731 94.4873L240.551 94.2956C238.333 91.9455 237.254 88.7363 236.515 85.5912C235.448 81.0392 233.977 74.845 235.779 70.2811C236.235 69.13 237.091 68.2186 238.145 67.5756C238.557 67.3234 239.001 67.1118 239.461 66.9436C239.692 66.8559 239.927 66.7799 240.168 66.7202C240.447 66.6442 240.731 66.5801 241.019 66.5358C241.275 66.496 241.531 66.4687 241.786 66.4525C242.05 66.4363 242.318 66.4326 242.581 66.4444C242.957 66.4562 243.329 66.496 243.693 66.5646C243.988 66.6199 244.276 66.6922 244.552 66.788C244.892 66.8957 245.211 67.0321 245.518 67.1958C248.356 68.7267 249.759 71.9676 250.758 75.0286C251.69 77.8661 252.449 80.7553 253.044 83.6806C253.5 85.9187 253.856 88.2253 253.519 90.4788Z" fill="#20795A"/>
<path d="M241.953 95.5195C241.514 95.2076 241.102 94.864 240.73 94.4842L240.551 94.2925C240.494 94.1561 240.438 94.0204 240.386 93.8803C238.712 89.5288 237.753 84.8411 236.966 80.2529C236.242 76.0327 236.051 71.4165 238.144 67.5724C238.557 67.3202 239 67.1086 239.46 66.9405L239.424 67.0009C238.005 69.107 237.369 71.6046 237.262 74.1221C237.158 76.5998 237.533 79.062 238.005 81.4874C238.436 83.7254 238.9 85.9598 239.455 88.1698C240.087 90.6799 240.871 93.1731 241.953 95.5195Z" fill="#51C292"/>
<path d="M245.934 97.0938C245.63 97.0576 245.327 97.0016 245.023 96.9256C244.583 95.731 244.139 94.5401 243.7 93.3448C242.852 91.047 241.801 88.733 241.302 86.3276C240.822 84.0055 240.894 81.6111 240.422 79.2853C239.955 76.992 239.36 74.734 239.4 72.3758C239.432 70.4651 239.768 68.5833 240.167 66.7169C240.447 66.6409 240.731 66.5768 241.018 66.5325C240.523 68.8384 240.091 71.1731 240.223 73.5387C240.351 75.8571 241.07 78.0826 241.43 80.3649C241.798 82.6862 241.706 85.0526 242.382 87.3223C243.06 89.6046 243.992 91.8301 244.814 94.0645C245.191 95.0755 245.562 96.0828 245.934 97.0938Z" fill="#51C292"/>
<path d="M251.153 95.4125C250.934 95.6286 250.702 95.8284 250.45 96.0039C250.179 94.3138 249.783 92.6428 249.307 90.9962C248.068 86.7125 246.302 82.6199 244.735 78.4558C243.28 74.5873 242.038 70.595 241.786 66.4507C242.049 66.4345 242.318 66.4308 242.581 66.4426C242.72 68.7043 243.164 70.9342 243.785 73.1125C244.992 77.3806 246.809 81.4452 248.344 85.5976C249.527 88.7943 250.566 92.0595 251.153 95.4125Z" fill="#51C292"/>
<path d="M253.519 90.4756C253.511 90.5435 253.504 90.6076 253.492 90.6755C253.395 91.2632 253.243 91.8502 253.036 92.418C252.932 91.6909 252.808 90.9675 252.664 90.2441C251.793 85.8122 250.275 81.5721 248.244 77.5437C246.462 74.0063 244.44 70.4852 243.692 66.5614C243.988 66.6167 244.276 66.689 244.551 66.7848C244.975 68.7552 245.718 70.6415 246.582 72.4636C247.525 74.462 248.595 76.3962 249.551 78.3902C250.51 80.3886 251.342 82.4467 252.021 84.5572C252.645 86.4951 253.144 88.4736 253.519 90.4756Z" fill="#51C292"/>
<path d="M270.384 77.2494C270.384 77.2494 274.137 110.641 271.919 113.905C269.702 117.169 257.305 120.302 252.929 120.771C248.553 121.241 236.955 113.905 236.955 113.905L234.528 81.2314L270.384 77.2494Z" fill="#46689C"/>
<path d="M238.141 79.8008C238.141 79.8008 235.912 61.0138 236.451 58.9586C236.99 56.9042 243.342 43.0741 243.342 43.0741C243.342 43.0741 246.642 43.9531 246.931 45.4861C246.931 45.4861 239.519 58.6283 239.519 60.3523C239.519 62.0764 241.649 79.5228 241.649 79.5228L238.141 79.8008Z" fill="#46689C"/>
<path d="M246.93 45.4886C246.93 45.4886 255.13 50.3541 256.055 54.1303C256.864 57.431 260.385 70.9071 260.385 70.9071L245.515 72.4336L244.291 55.6118L246.93 45.4886Z" fill="#88C036"/>
<path d="M244.291 70.9685L260.385 68.0395L262.009 74.1895L244.291 75.8008V70.9685Z" fill="#61AE32"/>
<path d="M266.317 168.277C264.955 174.41 253.102 179.466 247.839 179.776C242.583 180.079 231.484 175.177 231.594 171.649C231.703 168.128 231.594 141.422 231.594 141.422L231.728 141.409L260.383 138.507C260.383 138.507 263.491 148.587 265.272 157.287C266.213 161.911 266.786 166.148 266.317 168.277Z" fill="#D1F0FC"/>
<path d="M266.317 168.277C264.955 174.41 253.102 179.466 247.839 179.776C242.583 180.079 231.484 175.177 231.594 171.649C231.703 168.128 231.594 141.422 231.594 141.422L231.728 141.409C232.251 147.213 234.334 168.18 236.94 170.425C239.978 173.03 250.4 175.945 250.4 175.945C250.4 175.945 245.511 174.101 246.42 171.037C247.336 167.974 259.029 161.228 260.383 164.91C261.737 168.586 261.125 170.27 261.125 170.27C261.125 170.27 264.382 169.502 264.749 166.748C264.916 165.446 265.11 161.298 265.272 157.287C266.213 161.911 266.786 166.148 266.317 168.277Z" fill="#B5DEED"/>
<path d="M235.644 141.421C235.644 141.421 241.347 124.449 246.212 125.368C251.078 126.288 257.2 140.692 257.2 140.692L252.829 141.421C252.829 141.421 247.829 129.659 245.699 130.119C243.568 130.579 238.981 143.758 238.981 143.758L235.644 141.421Z" fill="#D1F0FC"/>
<path d="M237.562 135.035C238.76 135.411 240.405 126.892 240.405 126.892L242.781 126.485L242.427 130.109L244.492 134.996C244.492 134.996 245.523 135.029 246.789 134.993C246.947 134.99 247.108 134.982 247.27 134.977C248.027 134.946 248.827 134.887 249.517 134.781C249.584 134.774 249.652 134.761 249.717 134.753C250.061 134.692 251.125 134.323 251.246 134.184L250.5 130.116C250.5 130.116 254.206 125.78 254.376 124.931C254.442 124.593 251.66 117.922 251.329 117.189L247.593 116.932C247.593 116.932 241.655 121.887 241.333 122.183C240.168 123.261 238.993 124.502 238.301 125.654C238.007 126.142 237.803 126.614 237.724 127.05C237.176 130.058 236.365 134.66 237.562 135.035Z" fill="#F68672"/>
<path d="M249.518 134.781C249.585 134.774 249.653 134.761 249.718 134.753C249.665 134.589 249.593 134.375 249.509 134.117C249.319 133.53 249.076 132.733 248.831 131.866C248.591 130.997 248.428 130.199 248.373 129.586C248.361 129.431 248.35 129.29 248.339 129.167C248.342 129.042 248.34 128.934 248.342 128.844C248.339 128.664 248.339 128.56 248.339 128.56C248.339 128.56 248.292 128.653 248.216 128.828C248.177 128.914 248.131 129.024 248.081 129.15C248.044 129.279 248.005 129.425 247.963 129.593C247.806 130.251 247.773 131.212 248.036 132.166C248.305 133.115 248.763 133.859 249.142 134.345C249.283 134.525 249.411 134.668 249.518 134.781Z" fill="#D03B58"/>
<path d="M246.789 134.996C246.947 134.993 247.108 134.986 247.271 134.98L247.24 134.877C247.051 134.29 246.807 133.493 246.563 132.627C246.322 131.757 246.159 130.96 246.103 130.346C246.092 130.191 246.08 130.053 246.071 129.93C246.071 129.803 246.072 129.695 246.072 129.606C246.07 129.424 246.069 129.323 246.069 129.323C246.069 129.323 246.025 129.415 245.947 129.588C245.911 129.676 245.862 129.783 245.815 129.911C245.776 130.038 245.735 130.188 245.694 130.352C245.538 131.014 245.504 131.976 245.768 132.928C246.016 133.809 246.428 134.514 246.789 134.996Z" fill="#D03B58"/>
<path d="M247.593 116.934L249.717 97.3636L247.271 75.5304L258.806 74.4811C258.806 74.4811 259.977 97.708 259.747 98.8569C259.517 100.007 253.524 123.297 253.524 123.297L247.593 116.934Z" fill="#F68672"/>
<path d="M191.172 27.4414L181.4 18.4634L178.238 25.1385L191.172 27.4414Z" fill="white"/>
<path d="M195.365 26.4414L196.345 18.1625L191.792 18.7502L195.365 26.4414Z" fill="white"/>
<path d="M190.747 33.2416L181.896 33.2556L182.292 37.4492L190.747 33.2416Z" fill="white"/>
<path d="M103.135 232.969C103.135 232.969 80.0475 239 51.5669 239C23.0869 239 0 232.969 0 232.969C0 232.969 23.0869 226.939 51.5669 226.939C80.0475 226.939 103.135 232.969 103.135 232.969Z" fill="#CBB59B"/>
<path d="M225.557 231.934C225.557 231.934 192.39 237.965 151.477 237.965C110.563 237.965 77.3955 231.934 77.3955 231.934C77.3955 231.934 110.563 225.904 151.477 225.904C192.39 225.904 225.557 231.934 225.557 231.934Z" fill="#CBB59B"/>
<path d="M90.2105 86.8877L80.6723 80.7249L77.0567 69.2966L70.0176 71.594L70.8166 86.8877L86.6216 93.5039L90.2105 86.8877Z" fill="#F68672"/>
<path d="M97.8204 102.442C97.4924 102.38 97.1899 102.257 96.9023 102.095L96.8952 102.09C96.2127 101.719 95.6278 101.119 95.0838 100.54C94.4742 99.8911 93.8275 99.2594 93.1755 98.6341C92.6303 98.1065 92.0864 97.5859 91.56 97.0563C91.2445 96.7492 90.9478 96.4402 90.6504 96.1246L88.2444 94.6763C88.2444 94.6763 87.6465 94.2515 86.6211 93.5052L87.8729 91.1916L87.8801 91.1968L89.3791 88.4258L90.2119 86.8896L92.2874 88.1928L94.156 89.3698C96.9166 88.1753 99.9414 87.2865 102.949 87.2553C103.442 87.2475 103.941 87.278 104.432 87.2963L104.444 87.295C105.163 87.334 105.873 87.3548 106.584 87.2728C107.912 87.1121 109.151 86.5552 110.434 86.1609C110.634 86.1011 110.84 86.0471 111.047 85.9989C111.392 85.9111 111.772 85.8577 112.085 86.0171L112.126 86.0451C112.497 86.2689 112.635 86.7758 112.54 87.2039C112.527 87.2696 112.502 87.3301 112.482 87.39C112.347 87.7517 112.084 88.0627 111.819 88.3483L111.707 88.4498C110.238 89.932 108.27 90.9008 106.21 91.1786C105.943 91.2131 105.651 91.2443 105.457 91.4193C105.281 91.58 105.212 91.8318 105.166 92.068C104.992 93.0257 105.135 94.014 105.459 94.9437C105.618 95.4031 105.827 95.8566 106.061 96.2951L106.068 96.3068C106.357 96.8423 106.686 97.3986 106.653 97.9939C106.621 98.4734 106.361 98.8742 106.005 99.2145L105.947 99.2724C105.666 99.5339 105.329 99.7499 105.009 99.9386C104.839 100.04 104.67 100.135 104.485 100.226C103.138 100.974 101.718 101.601 100.253 102.092C99.4652 102.363 98.6349 102.599 97.8204 102.442Z" fill="#F36269"/>
<path d="M112.087 86.0208C111.774 85.8568 111.394 85.9147 111.045 85.9987C110.84 86.0494 110.633 86.1054 110.431 86.1646C109.152 86.5576 107.913 87.1112 106.586 87.2732C105.873 87.3591 105.161 87.3351 104.442 87.2947L104.435 87.2986C103.941 87.2778 103.444 87.2485 102.949 87.2537C99.9414 87.2895 96.9173 88.1757 94.158 89.3715L90.21 86.8907L89.3772 88.4262L87.8709 91.1959L86.6211 93.5069L91.8515 94.1562C94.3128 92.6175 99.1021 89.475 102.591 88.5225C103.213 88.3526 103.787 88.2544 104.306 88.244C104.906 88.2375 105.519 88.2505 106.13 88.2485C107.32 88.2453 108.496 88.1692 109.562 87.6721L109.729 87.5934C110.32 87.3292 111.058 87.0748 111.448 87.447C111.499 87.4938 111.541 87.5446 111.578 87.607C111.721 87.8556 111.677 88.1613 111.707 88.4541L111.816 88.352C112.085 88.0664 112.344 87.7547 112.48 87.3891C112.503 87.3299 112.527 87.27 112.538 87.2062C112.636 86.7775 112.498 86.2706 112.124 86.0488L112.087 86.0208Z" fill="#F68672"/>
<path d="M99.1279 95.596C97.66 96.2694 96.0172 96.5141 94.4043 96.4438C95.9138 96.9149 97.5566 97.0938 99.0758 96.6566C100.595 96.2194 101.967 95.0938 102.432 93.5824C102.516 93.3084 102.618 92.9662 102.576 92.704C102.041 92.9239 101.583 93.8706 101.131 94.2805C100.536 94.8185 99.8559 95.261 99.1279 95.596Z" fill="#F14568"/>
<path d="M149.25 105.681C148.914 106.034 148.329 106.115 147.91 105.868C147.538 107.936 147.166 110.005 146.793 112.074C146.706 112.564 146.555 113.133 146.091 113.313C145.482 113.549 144.9 112.932 144.558 112.377C143.75 111.063 143.224 109.681 142.677 108.285H140.806C140.903 109.147 141.571 110.259 141.899 110.833C142.227 111.407 144.055 116.741 144.17 116.763C145.384 117.008 146.653 116.976 147.854 116.67C147.53 112.964 148.009 109.189 149.25 105.681Z" fill="#2AB57E"/>
<path d="M151.91 101.018C152.679 99.9391 152.345 98.2423 151.224 97.5357C150.105 96.8291 148.429 97.2585 147.787 98.4166C147.536 97.2748 146.396 96.3977 145.228 96.4485C144.061 96.4986 143.001 97.4706 142.85 98.6294C142.066 97.3366 140.383 96.6645 138.924 97.0607C137.465 97.457 136.354 98.887 136.332 100.399C135.535 100.2 134.655 100.21 133.936 100.606C133.216 101.001 132.71 101.836 132.86 102.643C133.01 103.45 133.93 104.073 134.696 103.777C133.985 104.332 133.768 105.428 134.214 106.212C134.659 106.995 135.712 107.37 136.553 107.044C135.46 108.56 136.324 111.051 138.12 111.566C139.955 112.094 141.78 110.484 141.862 108.677L141.893 108.733C141.902 109.598 142.444 110.41 143.171 110.889C143.934 111.389 144.865 111.57 145.777 111.609C148.329 111.716 152.417 109.997 151.443 106.795L151.441 106.726C153.048 106.574 154.829 106.125 155.034 104.171C155.21 102.488 153.595 100.858 151.91 101.018Z" fill="#2EAE7D"/>
<path d="M166.944 107.755C166.546 107.929 166.037 107.793 165.778 107.444C164.754 109.018 163.731 110.591 162.708 112.164C162.466 112.536 162.145 112.952 161.7 112.94C161.118 112.923 160.852 112.214 160.764 111.637C160.555 110.277 160.601 108.958 160.635 107.619L159.095 106.97C158.877 107.713 159.041 108.86 159.112 109.446C159.182 110.032 158.838 115.053 158.924 115.111C159.838 115.733 160.894 116.148 161.987 116.312C163.006 113.15 164.708 110.212 166.944 107.755Z" fill="#2AB57E"/>
<path d="M170.749 104.84C171.756 104.22 172.069 102.708 171.392 101.738C170.715 100.769 169.189 100.541 168.259 101.271C168.449 100.245 167.814 99.1278 166.836 98.7648C165.858 98.401 164.649 98.8337 164.123 99.7348C163.926 98.3998 162.775 97.2631 161.438 97.0829C160.1 96.9033 158.69 97.6951 158.147 98.9313C157.562 98.4915 156.833 98.1948 156.104 98.2703C155.375 98.3464 154.67 98.8584 154.513 99.5741C154.357 100.29 154.898 101.121 155.631 101.143C154.854 101.354 154.295 102.179 154.39 102.979C154.485 103.778 155.221 104.451 156.025 104.475C154.602 105.344 154.448 107.691 155.747 108.738C157.075 109.808 159.134 109.116 159.828 107.659L159.834 107.716C159.541 108.43 159.705 109.286 160.139 109.931C160.592 110.608 161.296 111.079 162.033 111.427C164.095 112.401 168.054 112.404 168.363 109.431L168.385 109.373C169.76 109.805 171.38 110.054 172.226 108.517C172.953 107.194 172.19 105.293 170.749 104.84Z" fill="#2EAE7D"/>
<path d="M198.607 103.469V142.691H171.28V103.469H198.607Z" fill="#5B9FDC"/>
<path d="M179.35 103.469H173.375V101.056H179.35V103.469Z" fill="#363950"/>
<path d="M198.607 122.052V128.222C198.544 128.248 198.479 128.267 198.415 128.293C195.933 129.202 193.592 130.781 192.303 133.095C191.394 134.714 190.892 136.777 189.241 137.628C187.326 138.614 185.083 137.376 183.091 136.544C179.377 134.978 175.097 134.881 171.28 136.145V115.528C173.356 116.482 175.863 116.624 178.062 115.915C181.666 114.755 184.425 111.737 186.114 108.359C186.895 106.793 187.481 105.155 187.958 103.466H191.413C191.091 107.502 191.826 111.621 193.586 115.264C194.812 117.817 196.532 120.125 198.607 122.052Z" fill="white"/>
<path d="M175.951 121.795L177.135 124.625L178.317 121.795H180.212V127.215H178.65V124.246L177.722 126.69H176.547L175.619 124.246V127.215H174.057V121.795H175.951Z" fill="#363950"/>
<path d="M182.782 121.795V127.215H180.988V121.795H182.782Z" fill="#363950"/>
<path d="M185.351 121.795V125.723H187.608V127.215H183.558V121.795H185.351Z" fill="#363950"/>
<path d="M191.524 127.215L190.395 125.351L189.869 125.939V127.215H188.075V121.795H189.869V123.674L191.485 121.795H193.55L191.617 123.975L193.665 127.215H191.524Z" fill="#363950"/>
<path d="M200.249 130.641C200.614 130.674 200.991 130.699 201.337 130.579C201.682 130.46 201.991 130.157 202.003 129.791C202.019 129.313 201.563 128.969 201.146 128.734C199.823 127.991 198.379 127.464 196.888 127.18C199.016 127.062 201.106 126.314 202.826 125.054C203.382 124.646 203.939 123.868 203.488 123.345C203.214 123.028 202.728 123.037 202.312 123.086C200.695 123.27 199.098 123.637 197.562 124.175C198.759 123.264 199.551 121.838 199.692 120.339C199.73 119.935 199.668 119.437 199.297 119.273C198.953 119.121 198.569 119.356 198.279 119.594C197.13 120.537 196.178 121.721 195.506 123.046C195.81 122.429 196.121 121.771 196.059 121.086C195.996 120.402 195.399 119.717 194.72 119.829C194.189 119.915 193.843 120.419 193.584 120.89C192.789 122.337 190.538 127.205 191.814 128.72C192.418 129.437 194.746 129.687 195.633 129.894C197.152 130.251 198.695 130.501 200.249 130.641Z" fill="#2EAE7D"/>
<path d="M189.682 124.134C188.26 124.277 186.929 124.875 185.671 125.581C185.486 125.683 185.297 125.798 185.115 125.909C184.978 125.983 184.852 126.062 184.722 126.139C181.643 127.989 178.501 130.05 175.591 132.352C175.423 132.483 175.251 132.619 175.086 132.758C173.335 134.164 171.676 135.667 170.166 137.261C168.01 139.538 169.127 140.682 171.837 140.154C172.8 139.967 173.76 139.758 174.719 139.519C174.926 139.476 175.139 139.42 175.35 139.371C177.489 138.835 179.609 138.193 181.69 137.45C181.891 137.376 182.092 137.3 182.292 137.226C183.351 136.835 184.402 136.418 185.434 135.973C185.632 135.889 185.823 135.804 186.017 135.712C187.176 135.203 188.317 134.656 189.442 134.082C190.28 133.651 191.128 133.182 191.887 132.626C192.081 132.485 192.27 132.341 192.44 132.19C192.845 131.853 193.217 131.48 193.543 131.066C194.591 129.714 195.068 127.785 194.283 126.265C193.46 124.666 191.468 123.959 189.682 124.134Z" fill="#F68640"/>
<path d="M172.768 137.409C173.054 138.109 173.343 138.817 173.636 139.52C173.843 139.476 174.056 139.421 174.267 139.371C173.967 138.637 173.668 137.904 173.369 137.17C173.205 136.79 172.612 137.026 172.768 137.409Z" fill="#F46F2E"/>
<path d="M174.507 132.352C174.339 132.482 174.167 132.619 174.002 132.758C174.738 134.166 175.411 135.609 176.015 137.079C176.171 137.462 176.772 137.224 176.616 136.84C175.988 135.311 175.284 133.812 174.507 132.352Z" fill="#F46F2E"/>
<path d="M178.447 133.143C179.291 134.513 180.012 135.956 180.607 137.449C180.807 137.375 181.008 137.3 181.208 137.225C180.597 135.674 179.841 134.182 178.963 132.762C178.745 132.407 178.229 132.789 178.447 133.143Z" fill="#F46F2E"/>
<path d="M181.7 129.936C182.801 131.846 183.69 133.874 184.351 135.973C184.548 135.889 184.74 135.804 184.934 135.712C184.255 133.571 183.347 131.506 182.218 129.549C182.014 129.194 181.496 129.581 181.7 129.936Z" fill="#F46F2E"/>
<path d="M184.588 125.578C184.403 125.68 184.213 125.796 184.031 125.907C185.217 127.782 186.093 129.84 186.606 132.008C186.702 132.401 187.341 132.333 187.244 131.926C186.709 129.678 185.809 127.533 184.588 125.578Z" fill="#F46F2E"/>
<path d="M188.922 127.076C188.773 127.194 188.771 127.376 188.851 127.531C189.74 129.123 190.404 130.844 190.803 132.625C190.997 132.484 191.186 132.341 191.356 132.19C190.926 130.43 190.258 128.736 189.376 127.146C189.287 126.995 189.047 126.983 188.922 127.076Z" fill="#F46F2E"/>
<path d="M193.286 118.445C193.267 118.08 193.238 117.703 193.07 117.378C192.902 117.054 192.558 116.791 192.195 116.832C191.72 116.884 191.444 117.385 191.271 117.831C190.726 119.247 190.411 120.752 190.343 122.268C189.921 120.178 188.881 118.217 187.388 116.696C186.905 116.204 186.055 115.766 185.602 116.286C185.327 116.603 185.407 117.082 185.514 117.487C185.928 119.061 186.52 120.589 187.273 122.033C186.199 120.977 184.675 120.398 183.171 120.474C182.766 120.494 182.282 120.627 182.173 121.018C182.072 121.38 182.359 121.726 182.636 121.979C183.734 122.982 185.042 123.752 186.45 124.229C185.796 124.017 185.101 123.802 184.432 123.962C183.763 124.122 183.171 124.812 183.379 125.467C183.541 125.98 184.088 126.251 184.592 126.439C186.138 127.019 191.278 128.549 192.595 127.069C193.218 126.369 193.132 124.028 193.21 123.121C193.345 121.567 193.371 120.003 193.286 118.445Z" fill="#2EAE7D"/>
<path d="M188.514 130.909C188.86 132.295 189.642 133.526 190.521 134.671C190.648 134.839 190.789 135.011 190.925 135.174C191.018 135.299 191.115 135.412 191.209 135.531C193.482 138.312 195.972 141.126 198.667 143.676C198.821 143.824 198.981 143.974 199.143 144.117C200.784 145.648 202.509 147.075 204.303 148.341C206.867 150.148 207.838 148.878 206.928 146.272C206.604 145.346 206.259 144.425 205.885 143.511C205.813 143.312 205.727 143.109 205.649 142.907C204.812 140.868 203.872 138.861 202.838 136.908C202.736 136.721 202.633 136.533 202.531 136.346C201.991 135.353 201.428 134.374 200.839 133.415C200.729 133.231 200.617 133.054 200.498 132.876C199.827 131.801 199.123 130.751 198.393 129.72C197.848 128.952 197.261 128.18 196.602 127.508C196.435 127.336 196.266 127.171 196.092 127.023C195.7 126.671 195.278 126.357 194.821 126.094C193.333 125.25 191.356 125.055 189.964 126.05C188.499 127.093 188.085 129.166 188.514 130.909Z" fill="#F68640"/>
<path d="M203.922 144.672C204.573 144.289 205.232 143.902 205.886 143.511C205.813 143.312 205.728 143.109 205.649 142.907C204.966 143.309 204.282 143.71 203.599 144.112C203.246 144.33 203.564 144.882 203.922 144.672Z" fill="#F46F2E"/>
<path d="M198.668 143.675C198.822 143.824 198.982 143.973 199.144 144.117C200.431 143.186 201.762 142.314 203.13 141.505C203.488 141.295 203.165 140.735 202.808 140.945C201.384 141.785 200.002 142.697 198.668 143.675Z" fill="#F46F2E"/>
<path d="M198.886 139.665C200.121 138.634 201.445 137.713 202.838 136.911C202.736 136.724 202.633 136.536 202.531 136.348C201.084 137.175 199.715 138.137 198.436 139.21C198.116 139.476 198.567 139.932 198.886 139.665Z" fill="#F46F2E"/>
<path d="M195.246 136.907C196.978 135.543 198.858 134.373 200.839 133.418C200.729 133.234 200.617 133.057 200.499 132.879C198.476 133.856 196.564 135.051 194.789 136.45C194.467 136.702 194.923 137.16 195.246 136.907Z" fill="#F46F2E"/>
<path d="M190.521 134.673C190.649 134.841 190.79 135.012 190.926 135.176C192.613 133.733 194.524 132.572 196.595 131.753C196.971 131.602 196.812 130.979 196.423 131.133C194.275 131.984 192.281 133.184 190.521 134.673Z" fill="#F46F2E"/>
<path d="M191.381 130.168C191.52 130.299 191.699 130.275 191.84 130.172C193.289 129.065 194.896 128.161 196.603 127.51C196.436 127.339 196.267 127.173 196.093 127.026C194.413 127.704 192.832 128.609 191.385 129.709C191.248 129.819 191.27 130.058 191.381 130.168Z" fill="#F46F2E"/>
<path d="M179.295 146.934C179.282 147.044 179.27 147.147 179.251 147.256C179.096 148.204 178.85 149.152 178.515 150.067C177.851 151.885 176.839 153.574 175.48 154.896C175.124 155.244 174.751 155.566 174.344 155.85C174.022 156.095 173.681 156.308 173.319 156.508C171.392 157.565 169.219 157.874 167.059 157.61C166.569 157.552 166.079 157.462 165.589 157.339C163.836 156.914 162.135 156.127 160.639 155.07C159.929 154.567 159.265 154.013 158.666 153.4C158.563 153.297 158.466 153.194 158.376 153.091C154.798 149.3 153.057 144.124 151.864 139.05C150.143 131.707 147.771 121.714 150.678 114.352C151.413 112.495 152.793 111.026 154.495 109.988C155.158 109.581 155.874 109.24 156.616 108.969C156.99 108.827 157.37 108.705 157.756 108.608C158.208 108.486 158.666 108.382 159.13 108.312C159.542 108.247 159.955 108.202 160.368 108.176C160.793 108.15 161.225 108.144 161.651 108.163C162.256 108.182 162.856 108.247 163.443 108.357C163.92 108.447 164.384 108.563 164.829 108.718C165.377 108.892 165.893 109.111 166.389 109.375C170.966 111.844 173.229 117.073 174.841 122.011C176.343 126.588 177.568 131.249 178.528 135.968C179.264 139.578 179.837 143.298 179.295 146.934Z" fill="#20795A"/>
<path d="M160.639 155.07C159.929 154.567 159.265 154.013 158.666 153.4C158.563 153.297 158.466 153.195 158.376 153.091C158.286 152.872 158.195 152.653 158.112 152.427C155.41 145.407 153.863 137.844 152.593 130.443C151.426 123.636 151.117 116.189 154.495 109.988C155.159 109.582 155.874 109.24 156.616 108.969L156.558 109.066C154.269 112.463 153.244 116.493 153.07 120.554C152.902 124.551 153.509 128.523 154.269 132.436C154.965 136.046 155.713 139.65 156.609 143.215C157.628 147.263 158.892 151.286 160.639 155.07Z" fill="#51C292"/>
<path d="M167.059 157.609C166.569 157.551 166.079 157.462 165.589 157.339C164.881 155.411 164.165 153.49 163.456 151.562C162.089 147.856 160.393 144.123 159.588 140.242C158.813 136.496 158.93 132.634 158.169 128.883C157.415 125.182 156.454 121.54 156.519 117.736C156.57 114.655 157.112 111.618 157.756 108.607C158.208 108.485 158.666 108.382 159.13 108.311C158.33 112.03 157.634 115.796 157.847 119.612C158.053 123.351 159.214 126.942 159.793 130.623C160.387 134.368 160.238 138.186 161.328 141.847C162.424 145.529 163.926 149.119 165.255 152.723C165.86 154.354 166.46 155.978 167.059 157.609Z" fill="#51C292"/>
<path d="M175.48 154.897C175.124 155.245 174.751 155.568 174.344 155.852C173.906 153.125 173.268 150.43 172.501 147.774C170.502 140.863 167.653 134.261 165.126 127.543C162.779 121.303 160.774 114.863 160.368 108.178C160.793 108.152 161.225 108.146 161.651 108.164C161.876 111.813 162.592 115.411 163.591 118.924C165.538 125.809 168.471 132.366 170.947 139.064C172.855 144.222 174.532 149.489 175.48 154.897Z" fill="#51C292"/>
<path d="M179.296 146.934C179.283 147.043 179.271 147.146 179.251 147.256C179.096 148.203 178.851 149.151 178.516 150.066C178.349 148.893 178.148 147.727 177.917 146.56C176.511 139.41 174.061 132.57 170.786 126.071C167.911 120.367 164.649 114.687 163.443 108.356C163.92 108.446 164.385 108.562 164.829 108.717C165.512 111.895 166.711 114.938 168.104 117.878C169.626 121.101 171.354 124.221 172.894 127.438C174.442 130.661 175.782 133.982 176.878 137.386C177.884 140.513 178.69 143.703 179.296 146.934Z" fill="#51C292"/>
<path d="M183.638 161.271C183.638 164.597 174.998 165.854 169.094 165.725C163.42 165.847 155.246 164.694 154.601 161.664C154.563 161.535 154.55 161.406 154.55 161.271C154.55 158.46 157.773 142.601 159.288 135.303C159.759 133.066 160.061 131.629 160.061 131.629H178.119C178.119 131.629 178.422 133.066 178.893 135.303C180.408 142.601 183.638 158.46 183.638 161.271Z" fill="#FAB663"/>
<path d="M178.893 135.303C178.422 133.066 178.12 131.629 178.12 131.629H174.91H160.062C160.062 131.629 159.76 133.066 159.289 135.303H175.742C177.554 143.403 180.178 155.881 179.661 157.821C178.932 160.6 166.296 165.461 154.602 161.664C155.246 164.694 163.421 165.847 169.094 165.725C174.999 165.854 183.638 164.597 183.638 161.271C183.638 158.46 180.408 142.601 178.893 135.303Z" fill="#F7923D"/>
<path d="M179.662 133.121H158.522V128.296H179.662V133.121Z" fill="#FAB663"/>
<path d="M175.52 150.93H159.436V143.73H175.52V150.93Z" fill="white"/>
<path d="M204.307 161.588C204.307 164.914 195.669 166.171 189.764 166.042C184.09 166.165 175.917 165.011 175.271 161.981C175.233 161.852 175.22 161.723 175.22 161.588C175.22 158.776 178.443 142.917 179.958 135.619C180.429 133.383 180.732 131.945 180.732 131.945H198.789C198.789 131.945 199.093 133.383 199.562 135.619C201.078 142.917 204.307 158.776 204.307 161.588Z" fill="#F04242"/>
<path d="M199.563 135.619C199.093 133.383 198.79 131.945 198.79 131.945H195.579H180.732C180.732 131.945 180.429 133.383 179.958 135.619H196.412C198.224 143.72 200.849 156.198 200.33 158.139C199.602 160.917 186.966 165.778 175.271 161.981C175.917 165.011 184.091 166.165 189.764 166.042C195.669 166.171 204.308 164.914 204.308 161.588C204.308 158.776 201.078 142.917 199.563 135.619Z" fill="#EF2D2E"/>
<path d="M200.333 133.438H179.192V128.612H200.333V133.438Z" fill="#F04242"/>
<path d="M196.191 151.246H180.105V144.046H196.191V151.246Z" fill="white"/>
<path d="M138.067 120.618L124.539 121.445C124.539 121.445 118.5 91.247 122.163 82.5904C122.713 81.282 123.487 80.4687 124.539 80.3217C128.674 79.7485 132.143 90.4962 134.529 101.034C136.774 110.923 138.067 120.618 138.067 120.618Z" fill="#FAB663"/>
<path d="M130.465 92.4755C128.214 90.8977 125.601 89.8404 122.888 89.4078C125.024 91.5067 127.473 92.6219 130.465 92.4755Z" fill="#F7923D"/>
<path d="M131.274 100.171C129.023 98.593 126.411 97.5358 123.696 97.1031C125.834 99.202 128.283 100.317 131.274 100.171Z" fill="#F7923D"/>
<path d="M132.151 108.214C129.901 106.636 127.289 105.579 124.574 105.146C126.712 107.245 129.16 108.36 132.151 108.214Z" fill="#F7923D"/>
<path d="M134.529 101.031C134.18 99.8699 133.855 98.7007 133.522 97.5393C132.524 94.1014 131.393 90.6244 129.31 87.7129C127.56 85.2815 125.036 83.2762 122.163 82.5872C122.713 81.2788 123.487 80.4655 124.54 80.3185C128.675 79.7453 132.144 90.493 134.529 101.031Z" fill="#F7923D"/>
<path d="M144.253 163.254L138.504 111.643L120.621 113.143L126.071 163.254H144.253Z" fill="#C07E53"/>
<path d="M158.056 143.276C157.92 143.774 157.269 144.155 156.5 144.438C156.506 140.237 156.509 136.097 156.503 132.929C157.464 133.077 158.304 133.259 158.38 133.449C158.565 133.912 158.426 141.918 158.056 143.276ZM160.648 130.934C160.194 130.221 158.243 129.918 156.492 129.789C156.484 128.277 156.47 127.337 156.451 127.232C156.328 126.553 148.923 121.801 148.923 121.801V117.111H138.926V122.295C138.926 122.295 132.014 127.232 131.521 128.465C131.027 129.7 131.521 163.27 131.521 163.27H156.451C156.451 163.27 156.477 155.819 156.494 147.693C158.392 147.256 160.513 146.699 160.648 146.362C160.895 145.744 161.511 132.292 160.648 130.934Z" fill="#D1F0FC"/>
<path d="M150.374 119.238H137.508V113.407H150.374V119.238Z" fill="#363950"/>
<path d="M198.181 209.602H111.551C111.065 209.602 110.606 209.383 110.3 209.006C109.994 208.629 109.874 208.134 109.974 207.66L119.165 163.771C119.347 162.899 120.201 162.343 121.073 162.523C121.944 162.706 122.502 163.56 122.32 164.431L113.535 206.378H198.181C199.07 206.378 199.792 207.1 199.792 207.991C199.792 208.881 199.07 209.602 198.181 209.602Z" fill="#BCBEBC"/>
<path d="M112.928 107.348C112.183 107.348 111.514 106.828 111.353 106.071L109.632 97.9734L93.0447 95.4958C92.1644 95.3644 91.5574 94.5439 91.6888 93.6636C91.8202 92.7833 92.6407 92.1782 93.521 92.3077L111.215 94.9506C111.88 95.0501 112.413 95.5517 112.553 96.2095L114.506 105.401C114.691 106.272 114.135 107.127 113.264 107.312C113.152 107.337 113.039 107.348 112.928 107.348Z" fill="#363950"/>
<path d="M122.158 162.52L202.347 164.297L209.864 121.341L114.811 107.635L122.158 162.52ZM203.696 167.551L203.66 167.55L120.708 165.712C119.913 165.695 119.251 165.102 119.145 164.315L111.333 105.949C111.266 105.448 111.437 104.945 111.797 104.589C112.156 104.234 112.661 104.067 113.16 104.14L211.969 118.387C212.4 118.449 212.787 118.683 213.043 119.036C213.299 119.389 213.401 119.831 213.326 120.26L205.283 166.218C205.148 166.99 204.477 167.551 203.696 167.551Z" fill="#BCBEBC"/>
<path d="M196.282 149.313L185.886 149.18L187.101 130.833L198.68 131.381L196.282 149.313ZM174.252 149.031L174.799 130.251L185.813 130.772L184.594 149.163L174.252 149.031ZM164.282 148.902V129.753L173.511 130.19L172.962 149.014L164.282 148.902ZM152.959 148.757L152.782 129.209L162.992 129.693V148.886L152.959 148.757ZM141.471 148.61L140.726 128.639L151.493 129.148L151.669 148.74L141.471 148.61ZM130.855 148.473L128.963 128.082L139.434 128.577L140.18 148.593L130.855 148.473ZM209.795 130.616L200.144 130.16L201.699 118.53C201.746 118.177 201.498 117.852 201.145 117.805C200.792 117.759 200.468 118.006 200.421 118.359L198.852 130.098L187.186 129.546L188.049 116.518C188.073 116.163 187.804 115.856 187.449 115.832C187.094 115.806 186.786 116.078 186.762 116.433L185.898 129.486L174.836 128.962L175.271 114.028C175.283 113.672 175.002 113.375 174.646 113.364C174.297 113.342 173.993 113.634 173.983 113.99L173.549 128.901L164.282 128.462V113.048C164.282 112.692 163.993 112.403 163.637 112.403C163.281 112.403 162.992 112.692 162.992 113.048V128.402L152.771 127.917L152.622 111.361C152.619 111.007 152.33 110.722 151.977 110.722H151.971C151.615 110.725 151.329 111.017 151.332 111.373L151.481 127.856L140.678 127.346L140.013 109.525C140 109.169 139.696 108.886 139.345 108.905C138.989 108.918 138.711 109.217 138.724 109.573L139.385 127.285L128.843 126.785L127.065 107.623C127.032 107.269 126.716 107.01 126.364 107.041C126.009 107.073 125.748 107.388 125.781 107.742L127.542 126.723L115.781 126.167C115.423 126.158 115.123 126.425 115.107 126.78C115.09 127.136 115.365 127.438 115.72 127.455L127.662 128.02L129.558 148.457L118.724 148.317H118.716C118.364 148.317 118.076 148.6 118.071 148.954C118.066 149.31 118.351 149.602 118.707 149.606L129.678 149.748L131.015 164.162C131.047 164.497 131.327 164.748 131.657 164.748L131.717 164.745C132.072 164.712 132.332 164.398 132.299 164.043L130.975 149.764L140.228 149.883L140.776 164.585C140.789 164.933 141.076 165.206 141.421 165.206L141.445 165.205C141.801 165.192 142.078 164.893 142.065 164.538L141.519 149.9L151.681 150.03L151.808 164.108C151.812 164.462 152.1 164.748 152.453 164.748H152.459C152.815 164.745 153.101 164.453 153.098 164.097L152.971 150.047L162.992 150.175V165.264C162.992 165.62 163.281 165.909 163.637 165.909C163.993 165.909 164.282 165.62 164.282 165.264V150.192L172.925 150.303L172.489 165.245C172.478 165.601 172.759 165.897 173.115 165.908L173.133 165.909C173.481 165.909 173.768 165.632 173.778 165.283L174.214 150.319L184.51 150.452L183.514 165.465C183.491 165.821 183.76 166.128 184.115 166.151L184.158 166.152C184.495 166.152 184.779 165.892 184.801 165.55L185.801 150.468L196.11 150.601L194.097 165.657C194.05 166.01 194.297 166.334 194.65 166.382L194.736 166.387C195.055 166.387 195.331 166.152 195.375 165.828L197.408 150.617L206.461 150.734H206.47C206.822 150.734 207.11 150.45 207.115 150.097C207.119 149.741 206.834 149.449 206.478 149.444L197.58 149.33L199.972 131.442L209.734 131.904L209.765 131.905C210.107 131.905 210.392 131.636 210.409 131.291C210.426 130.935 210.151 130.633 209.795 130.616Z" fill="#BCBEBC"/>
<path d="M133.155 225.136C133.155 229.69 129.463 233.383 124.909 233.383C120.353 233.383 116.661 229.69 116.661 225.136C116.661 220.58 120.353 216.889 124.909 216.889C129.463 216.889 133.155 220.58 133.155 225.136Z" fill="#363950"/>
<path d="M123.066 208.792L124.771 219.954L121.902 225.999L124.771 227.938L133.142 219.489L133.685 208.792H123.066Z" fill="#DCDDDA"/>
<path d="M125.856 225.302C125.856 225.944 125.335 226.465 124.694 226.465C124.051 226.465 123.53 225.944 123.53 225.302C123.53 224.661 124.051 224.14 124.694 224.14C125.335 224.14 125.856 224.661 125.856 225.302Z" fill="#363950"/>
<path d="M137.261 211.051H119.486V205.416H137.261V211.051Z" fill="#363950"/>
<path d="M187.309 225.136C187.309 229.69 183.616 233.383 179.062 233.383C174.507 233.383 170.814 229.69 170.814 225.136C170.814 220.58 174.507 216.889 179.062 216.889C183.616 216.889 187.309 220.58 187.309 225.136Z" fill="#363950"/>
<path d="M176.809 208.792L178.515 219.954L175.646 225.999L178.515 227.938L186.887 219.489L187.429 208.792H176.809Z" fill="#DCDDDA"/>
<path d="M179.6 225.302C179.6 225.944 179.08 226.465 178.437 226.465C177.795 226.465 177.274 225.944 177.274 225.302C177.274 224.661 177.795 224.14 178.437 224.14C179.08 224.14 179.6 224.661 179.6 225.302Z" fill="#363950"/>
<path d="M191.004 211.051H173.229V205.416H191.004V211.051Z" fill="#363950"/>
<path d="M59.8105 41.2329C59.8105 41.2329 71.5681 44.9825 72.7164 46.5928C73.8654 48.2031 82.3737 76.3519 82.3737 76.3519L65.3272 79.9805L59.8105 41.2329Z" fill="#DCDDDA"/>
<path d="M83.4925 73.9219L84.9571 79.0891L69.6478 82.0781L69.1553 77.5023L83.4925 73.9219Z" fill="white"/>
<path d="M37.0417 230.445C37.2974 229.965 37.4704 229.315 37.0976 228.664C36.0085 226.765 31.7026 220.205 31.039 217.766C30.5237 215.871 31.0331 212.936 31.2869 211.718L19.7376 204.177C16.9451 206.539 12.3848 211.685 11.4355 212.766L37.0417 230.445Z" fill="#DD3464"/>
<path d="M35.2337 232.969L9.62695 215.29L11.4357 212.768L37.0418 230.447L35.2337 232.969Z" fill="white"/>
<path d="M28.3763 216.985L28.2618 217.037C27.9781 217.171 27.6541 217.455 27.8558 217.793C27.9586 217.966 28.1492 218.067 28.3347 218.149C28.9749 218.431 29.6645 218.551 30.3588 218.618C31.105 218.69 31.904 218.761 32.6203 218.489C33.3614 218.207 33.2228 217.371 32.5247 217.074C31.3178 216.56 29.6079 216.456 28.3763 216.985Z" fill="white"/>
<path d="M29.331 219.665L29.2159 219.716C28.9322 219.85 28.6082 220.135 28.8099 220.472C28.9127 220.645 29.1033 220.747 29.2894 220.828C29.9296 221.11 30.6186 221.231 31.3135 221.298C32.0598 221.37 32.8588 221.441 33.5751 221.169C34.3155 220.887 34.1769 220.051 33.4795 219.754C32.2725 219.239 30.562 219.136 29.331 219.665Z" fill="white"/>
<path d="M31.0635 222.192L30.949 222.244C30.6646 222.378 30.3406 222.663 30.5423 223C30.6451 223.173 30.8357 223.274 31.0218 223.356C31.662 223.638 32.3517 223.758 33.0459 223.825C33.7922 223.897 34.5912 223.968 35.3075 223.696C36.0479 223.414 35.91 222.578 35.2119 222.281C34.005 221.767 32.2945 221.663 31.0635 222.192Z" fill="white"/>
<path d="M62.9061 170.754L47.3814 155.752L16.5059 202.85L33.1164 214.363L62.9061 170.754Z" fill="#282A3E"/>
<path d="M49.3523 117.234C50.4343 128.936 51.8579 147.918 50.1357 152.036C50.0817 152.167 49.6692 152.854 48.9932 153.95L66.3942 169.355C66.3942 169.355 72.6207 159.161 73.3722 155.314C75.0573 146.68 71.5446 123.837 70.6584 117.234H49.3523Z" fill="#282A3E"/>
<path d="M71.6838 166.041L55.8351 117.234H29.3936C31.4866 122.418 48.1505 163.698 52.4121 173.94L58.0225 220.34L75.8569 216.635L75.4171 211.326L71.6838 166.041Z" fill="#363950"/>
<path d="M60.6951 165.679C61.226 167.62 62.4993 169.348 64.1955 170.43C65.3198 171.147 66.8754 171.55 67.9333 170.739C68.9054 169.993 69.0108 168.579 68.9099 167.358C68.7805 165.801 68.4519 164.261 67.9346 162.787C67.4655 161.451 66.7772 160.096 65.5598 159.374C61.2397 156.812 59.9117 162.814 60.6951 165.679Z" fill="#52546E"/>
<path d="M91.1977 226.552C91.0584 226.028 90.7409 225.431 90.02 225.195C87.9133 224.506 80.2339 222.482 78.0725 221.111C76.3946 220.048 74.7634 217.536 74.1174 216.467L60.3995 218.489C59.946 222.08 60.0892 228.898 60.125 230.324L91.1977 226.552Z" fill="#DD3464"/>
<path d="M91.5835 229.61L60.5108 233.383L60.125 230.322L91.1977 226.55L91.5835 229.61Z" fill="white"/>
<path d="M75.5637 222.284L75.5142 222.399C75.3958 222.686 75.3503 223.109 75.7309 223.227C75.9248 223.287 76.1362 223.236 76.3295 223.175C76.9964 222.962 77.5904 222.597 78.1506 222.189C78.7531 221.75 79.3939 221.277 79.7381 220.603C80.094 219.906 79.4193 219.377 78.6991 219.618C77.4525 220.032 76.1148 221.082 75.5637 222.284Z" fill="white"/>
<path d="M78.1051 223.64L78.055 223.754C77.9372 224.041 77.891 224.465 78.2716 224.583C78.4662 224.642 78.6763 224.592 78.8702 224.53C79.5371 224.317 80.1311 223.953 80.6913 223.545C81.2932 223.105 81.934 222.632 82.2789 221.958C82.6348 221.261 81.9601 220.733 81.2392 220.973C79.9932 221.387 78.6555 222.437 78.1051 223.64Z" fill="white"/>
<path d="M81.1161 224.371L81.0667 224.485C80.9489 224.772 80.9027 225.195 81.2834 225.313C81.4779 225.373 81.688 225.323 81.8819 225.261C82.5488 225.047 83.1429 224.683 83.703 224.275C84.3049 223.836 84.9458 223.363 85.2899 222.689C85.6465 221.992 84.9718 221.463 84.2509 221.703C83.0049 222.118 81.6672 223.168 81.1161 224.371Z" fill="white"/>
<path d="M61.4064 212.769C61.4064 212.769 56.8013 175.112 55.7544 171.1C54.8195 167.524 38.3683 126.181 34.8068 117.234H29.3936C31.4866 122.418 48.1505 163.698 52.4121 173.94L58.0225 220.34L75.8569 216.635L75.4171 211.326L61.4064 212.769Z" fill="#282A3E"/>
<path d="M44.0876 39.8125C44.0876 39.8125 35.4921 41.8489 34.1135 42.9394C32.7348 44.0298 28.7302 110.016 30.4264 117.235C30.4264 117.235 59.7938 118.369 71.1577 116.625C71.1577 116.625 70.764 53.1451 69.2708 49.1236C67.777 45.1021 59.8113 41.2341 59.8113 41.2341L49.5659 44.7579L44.0876 39.8125Z" fill="#DCDDDA"/>
<path d="M46.8553 38.8483L44.0869 39.8119C44.0869 39.8119 46.9438 49.7164 52.9394 52.168L58.5133 47.594L63.9519 50.8465C63.9519 50.8465 60.3852 42.0761 59.8107 41.2335L56.9615 40.7L46.8553 38.8483Z" fill="white"/>
<path d="M47.3309 41.9391C47.5892 42.1213 58.5133 47.5938 58.5133 47.5938C58.5133 47.5938 57.5217 43.2222 57.0149 40.943C56.8607 40.2371 56.7494 39.7316 56.7299 39.6197C56.5699 38.701 56.661 34.5857 56.661 34.5857L46.1182 31.8225C46.1182 31.8225 46.3153 33.8629 46.5528 36.1115C46.8397 38.8239 47.1884 41.8389 47.3309 41.9391Z" fill="#F68672"/>
<path d="M46.5528 36.1098C49.6081 37.6069 56.3343 40.8744 56.9602 40.9395L57.0149 40.9414C56.8607 40.2355 56.7494 39.7299 56.7299 39.618C56.5699 38.6994 56.661 34.5841 56.661 34.5841L46.1182 31.8209C46.1182 31.8209 46.3153 33.8613 46.5528 36.1098Z" fill="#F36269"/>
<path d="M44.8419 32.3966C44.8419 32.3966 45.2089 33.059 46.4679 33.8332H46.4698C46.7268 33.9926 47.0235 34.1566 47.3612 34.3205C48.6494 34.9425 60.1747 37.668 61.7882 37.1599C63.4024 36.6517 63.9698 30.7024 63.9516 30.0908C63.8442 26.3347 63.3309 14.7594 63.3309 14.7594C57.105 3.13266 43.6793 12.056 42.2381 13.5557C40.797 15.0561 44.8419 32.3966 44.8419 32.3966Z" fill="#F68672"/>
<path d="M46.4697 33.8332C46.7267 33.9926 47.0234 34.1566 47.3611 34.3205C48.6493 34.9425 60.1746 37.668 61.7881 37.1599C63.4023 36.6517 63.9697 30.7024 63.9515 30.0908C63.3574 32.7636 62.796 36.4143 61.6066 36.508C59.8154 36.6504 47.8914 34.2913 46.4697 33.8332Z" fill="#F9AA7F"/>
<path d="M62.816 19.3086C62.816 19.3086 61.1791 16.3866 59.9318 17.2936C58.6845 18.2006 59.1686 18.3769 59.1686 18.3769L62.816 19.3086Z" fill="#353638"/>
<path d="M46.7227 18.1367C46.7227 18.1367 50.4111 13.8673 51.929 15.3774C52.8151 16.2584 52.2022 16.8615 52.2022 16.8615L46.7227 18.1367Z" fill="#353638"/>
<path d="M49.6095 23.3906C49.8079 24.5298 50.5444 25.3535 51.2543 25.2299C51.9641 25.1063 52.3786 24.0822 52.1795 22.9423C51.981 21.8024 51.2445 20.9794 50.5347 21.103C49.8248 21.2266 49.4104 22.2507 49.6095 23.3906Z" fill="#121414"/>
<path d="M48.1807 22.4528C48.1807 22.4528 48.7565 23.0832 49.5951 23.2635C50.4338 23.4437 51.2172 23.106 51.2172 23.106C51.2172 23.106 50.642 22.4762 49.8033 22.296C48.9647 22.1151 48.1807 22.4528 48.1807 22.4528Z" fill="white"/>
<path d="M61.8949 22.0477C62.0446 22.9072 61.7323 23.6789 61.1975 23.7719C60.6626 23.8656 60.1077 23.2449 59.9574 22.3854C59.8077 21.5266 60.12 20.7543 60.6555 20.6612C61.1903 20.5682 61.7453 21.1889 61.8949 22.0477Z" fill="#121414"/>
<path d="M62.5955 21.1479C62.5955 21.1479 62.3352 21.6664 61.8173 21.9885C61.2994 22.3119 60.7197 22.3164 60.7197 22.3164C60.7197 22.3164 60.98 21.7985 61.4979 21.4758C62.0158 21.1531 62.5955 21.1479 62.5955 21.1479Z" fill="white"/>
<path d="M53.7812 32.5897C54.8405 32.9092 56.037 32.7368 56.9622 32.131C56.7032 32.6971 56.2693 33.0803 55.6518 33.1649C55.0344 33.2481 54.2744 32.9703 53.7812 32.5897Z" fill="#F14568"/>
<path d="M61.769 26.9771C62.0169 27.3994 63.0013 27.2816 63.9681 26.7143C64.9349 26.1463 65.5179 25.3441 65.27 24.9218C65.0228 24.4995 64.0377 24.6173 63.0709 25.1853C62.104 25.7527 61.5211 26.5549 61.769 26.9771Z" fill="#F36269"/>
<path d="M48.3896 27.1363C48.3317 27.8487 49.6069 28.5326 51.2374 28.6653C52.8672 28.7974 54.2355 28.327 54.2934 27.6152C54.3513 26.9034 53.0767 26.2189 51.4462 26.0868C49.8158 25.9548 48.4475 26.4245 48.3896 27.1363Z" fill="#F36269"/>
<path d="M50.958 29.9304C50.958 29.9304 51.0413 30.0111 51.1864 30.151C51.3334 30.2961 51.5663 30.4835 51.8767 30.6878C52.4909 31.0983 53.4707 31.5225 54.6217 31.6104C55.7726 31.6923 56.8039 31.4171 57.4721 31.1009C57.8085 30.9441 58.0668 30.7932 58.2333 30.6715C58.3973 30.5544 58.4916 30.4867 58.4916 30.4867C58.4916 30.4867 58.383 30.5271 58.1943 30.5967C58.0076 30.6728 57.7271 30.7594 57.3823 30.8478C56.6926 31.0274 55.7232 31.1497 54.6607 31.0743C53.5996 30.9936 52.6581 30.7294 52.0016 30.4503C51.6743 30.3124 51.4095 30.1855 51.2358 30.0833C51.0595 29.9864 50.958 29.9304 50.958 29.9304Z" fill="#F14568"/>
<path d="M56.2871 26.5926L55.751 25.2445C55.751 25.2445 57.7426 25.9895 58.8916 25.5295V26.832H58.049L56.2871 26.5926Z" fill="#F36269"/>
<path d="M59.2006 27.1191C58.2286 27.2765 57.1648 27.041 56.2871 26.5947C57.0522 26.4997 57.8271 26.4854 58.5949 26.5511C58.5188 24.2908 58.0828 21.9108 56.5883 20.2146C57.6098 20.9778 58.3821 22.037 58.7816 23.2478C59.1811 24.4587 59.2579 25.8451 59.2006 27.1191Z" fill="#F14568"/>
<path d="M46.4958 32.5582C44.257 32.769 42.4203 31.7391 41.3682 30.7924C41.1314 30.579 40.9349 30.3688 40.782 30.1795C39.9518 29.145 39.0787 25.21 40.5419 24.005C41.568 23.1612 42.5595 23.953 43.0612 24.5041V24.506C43.2752 24.7396 43.4002 24.9302 43.4002 24.9302L46.4958 32.5582Z" fill="#F9AA7F"/>
<path d="M46.4959 32.5582C44.2571 32.769 42.4204 31.7391 41.3683 30.7924C41.2746 30.6935 41.1907 30.5979 41.1178 30.5061C40.2876 29.4723 39.4145 25.5373 40.8784 24.3329C41.7086 23.6485 42.5167 24.0382 43.0612 24.5041V24.506C43.2753 24.7396 43.4002 24.9302 43.4002 24.9302L46.4959 32.5582Z" fill="#F68672"/>
<path d="M40.579 27.2458C40.553 27.5777 40.6623 27.8984 40.8211 28.1938C41.4971 29.4476 43.0039 30.2316 44.4412 30.9531C43.9447 30.3747 43.6767 29.6701 43.6311 28.9466C43.6155 28.6948 43.6259 28.4391 43.5849 28.1912C43.4203 27.1912 40.7332 25.2861 40.579 27.2458Z" fill="#F36269"/>
<path d="M45.1467 31.2188L45.0673 31.1901C45.0159 31.1706 44.9352 31.1465 44.8409 31.1036C44.6502 31.0197 44.3828 30.8778 44.1135 30.6462C43.8454 30.4146 43.5826 30.0893 43.4128 29.6787C43.2527 29.2688 43.1844 28.7698 43.3295 28.2525C43.3431 28.1875 43.3672 28.1244 43.3919 28.0612L43.4095 28.0144L43.4121 28.0085L43.4114 28.0105L43.4128 28.0092H43.4134L43.4082 28.0027L43.3809 27.9682L43.3243 27.8999L43.2104 27.7672C43.0556 27.5934 42.8936 27.4327 42.7309 27.2857C42.5676 27.1387 42.4017 27.0066 42.2403 26.8869C42.077 26.7691 41.9215 26.6585 41.7719 26.583C41.6229 26.5062 41.4674 26.4666 41.3281 26.4724C41.1896 26.4809 41.0666 26.5342 40.9879 26.5921C40.9078 26.6507 40.8694 26.7151 40.8564 26.7606L40.8454 26.8316L40.8369 26.7593C40.8376 26.7118 40.861 26.6357 40.9371 26.5557C41.0126 26.4776 41.1381 26.395 41.3171 26.3592C41.496 26.326 41.7003 26.3527 41.8896 26.4197C42.0816 26.4874 42.2592 26.583 42.4472 26.6884C42.6346 26.7964 42.8272 26.92 43.0165 27.0625C43.2052 27.205 43.3919 27.3657 43.5669 27.5447L43.6958 27.6819L43.7589 27.7535L43.8435 27.8544L43.902 27.9259L43.8721 28.0125L43.8266 28.1367L43.7738 28.302C43.6476 28.7509 43.6789 29.1927 43.7843 29.5753C43.8981 29.9559 44.0894 30.2799 44.2963 30.5258C44.5045 30.7731 44.7231 30.9448 44.8838 31.0561C44.9638 31.112 45.0335 31.1478 45.0777 31.1765L45.1467 31.2188Z" fill="#D03B58"/>
<path d="M37.5068 21.7724L37.9148 22.1368L40.2909 24.2682C42.4939 23.561 44.8843 27.375 44.8843 27.375L45.0515 16.4932C47.7959 16.0977 56.3952 11.8933 56.3952 11.8933L63.4643 17.7503C63.4643 17.7503 64.0011 16.935 64.5984 15.7196C65.6895 13.486 66.9667 9.90628 65.4064 7.60761C63.0004 4.05648 53.6685 2.44617 53.6685 2.44617L50.2097 4.657C50.2097 4.657 41.8094 6.18989 39.6923 8.19057C37.5751 10.1913 37.5068 21.7724 37.5068 21.7724Z" fill="#121414"/>
<path d="M37.5068 21.7729L37.9148 22.1373C39.3117 21.6616 40.5967 20.8412 41.6221 19.7722C42.1367 20.8412 42.6533 21.916 43.168 22.9844C43.9006 20.1288 44.0144 17.1333 43.5336 14.2315C48.6105 14.6297 53.8077 11.8723 56.323 7.43696C59.8254 9.29125 62.7441 12.2256 64.5984 15.7201C65.0239 14.858 65.4657 13.7936 65.7708 12.6836C66.2516 10.912 66.3642 9.01929 65.4064 7.60808C63.0004 4.05695 53.6685 2.44664 53.6685 2.44664L50.2097 4.65747C50.2097 4.65747 41.8094 6.19036 39.6923 8.19104C38.5075 9.31207 37.9603 13.4364 37.717 16.8483C37.5205 19.5321 37.5068 21.7729 37.5068 21.7729Z" fill="#353638"/>
<path d="M37.7168 16.8477L37.7233 16.8464C39.1514 16.6616 40.0545 15.2582 40.7552 14.0038C41.0396 14.8899 41.3317 15.7806 41.616 16.6668C42.6323 14.724 43.1007 12.4976 42.9531 10.303C48.0026 11.6446 53.7789 9.5951 56.8498 5.36862C60.7334 6.25933 64.0835 9.08762 65.7706 12.683C66.2514 10.9113 66.364 9.01866 65.4062 7.60744C63.0002 4.05631 53.6683 2.446 53.6683 2.446L50.2095 4.65684C50.2095 4.65684 41.8093 6.18972 39.6921 8.1904C38.5073 9.31144 37.9601 13.4358 37.7168 16.8477Z" fill="#4A4C4E"/>
<path d="M11.2552 83.8208C11.2552 83.8208 6.43014 118.934 8.26817 122.322C10.1062 125.711 20.839 128.009 25.813 128.239C30.7871 128.468 42.0501 123.413 42.5082 121.115C42.9662 118.817 39.7059 83.8208 39.7059 83.8208H11.2552Z" fill="#F46D3C"/>
<path d="M48.117 99.9004C47.698 101.071 39.9926 97.2829 39.9926 97.2829L38.2528 98.9147L41.3245 100.8L43.9491 105.347C43.9491 105.347 43.359 106.18 42.575 107.158C42.478 107.28 42.3765 107.403 42.2744 107.528C41.7994 108.107 41.275 108.703 40.7786 109.184L40.6374 109.325C40.3843 109.56 40.1423 109.762 39.923 109.912C39.6771 110.078 39.4578 110.18 39.2756 110.191L36.5098 107.175C36.5098 107.175 30.8767 107.511 30.105 107.138C29.7986 106.989 29.0035 105.728 28.1557 104.264C27.751 103.56 26.1954 100.811 25.8135 100.113L27.8415 97.0097L32.4291 95.9465C32.9665 95.8015 33.6815 95.6225 34.4851 95.4514V95.4488C34.88 95.3636 35.2964 95.2816 35.7225 95.2048C37.2684 94.9277 38.9497 94.7422 40.2717 94.8847C40.8326 94.9426 41.3277 95.0636 41.7187 95.2621C44.4202 96.6252 48.5354 98.7332 48.117 99.9004Z" fill="#F68672"/>
<path d="M40.7783 109.184L40.6371 109.324C40.5388 109.185 40.4132 109 40.2597 108.78C39.9097 108.281 39.4256 107.612 38.8882 106.901C38.3456 106.194 37.8133 105.588 37.3618 105.178C37.2473 105.077 37.1432 104.985 37.0508 104.902C36.9513 104.829 36.8673 104.763 36.7951 104.712C36.6552 104.602 36.5732 104.539 36.5732 104.539C36.5732 104.539 36.6741 104.558 36.8582 104.602C36.9487 104.623 37.0625 104.652 37.192 104.688C37.3156 104.737 37.4548 104.791 37.6123 104.859C38.2252 105.129 39.0033 105.676 39.5993 106.453C40.1875 107.232 40.5017 108.037 40.6592 108.627C40.7164 108.845 40.7535 109.032 40.7783 109.184Z" fill="#D03B58"/>
<path d="M42.5749 107.156C42.478 107.279 42.3765 107.402 42.2743 107.527L42.2112 107.441C41.8612 106.941 41.3777 106.274 40.8403 105.564C40.297 104.855 39.7648 104.249 39.314 103.84C39.1994 103.737 39.0973 103.646 39.0056 103.566C38.906 103.49 38.8188 103.426 38.7499 103.373C38.6067 103.263 38.5273 103.203 38.5273 103.203C38.5273 103.203 38.6256 103.221 38.8097 103.263C38.9002 103.287 39.014 103.313 39.1435 103.352C39.2671 103.397 39.4089 103.455 39.5638 103.52C40.1799 103.792 40.9581 104.34 41.5508 105.116C42.0986 105.838 42.409 106.584 42.5749 107.156Z" fill="#D03B58"/>
<path d="M16.1722 88.8861L21.7897 75.4317H8.49935C5.83893 82.7448 2.69769 92.4613 3.74911 95.0241C5.49214 99.2733 28.1548 104.262 28.1548 104.262L29.7573 96.5635L16.1722 88.8861Z" fill="#F68672"/>
<path d="M36.9566 41.7559C36.9566 41.7559 29.6761 43.534 25.8432 46.6148C22.0104 49.6968 5.81556 76.7877 5.50391 78.7038L21.2302 83.8203L32.5954 69.6438L36.9566 41.7559Z" fill="#DCDDDA"/>
<path d="M2.95801 82.79L4.8162 76.3533L24.0085 81.9591L20.9141 87.2969L2.95801 82.79Z" fill="white"/>
<path d="M71.3336 69.4787C71.303 68.8587 71.1651 68.2607 71.1528 67.6387C71.1391 66.9172 71.128 66.1956 71.102 65.4734C71.0558 64.1819 70.8743 62.8995 70.75 61.6132C70.3551 57.5319 70.2302 53.2852 68.059 49.6671C68.018 49.5994 67.9204 49.6586 67.9543 49.7282C68.8268 51.5187 69.2093 53.6001 69.4943 55.5611C69.7981 57.6535 69.9667 59.8058 70.0083 61.9197C70.033 63.1566 70.0402 64.3941 70.1157 65.6289C70.1534 66.247 70.1866 66.8658 70.2113 67.4845C70.236 68.1189 70.1306 68.6986 70.0805 69.3258C69.9875 70.4852 70.0031 71.6408 70.0486 72.8015C70.0974 74.0364 70.2907 75.2277 70.0968 76.4619C70.0089 77.026 70.8522 77.283 70.9712 76.7033C71.2041 75.5718 71.2738 74.3766 71.2627 73.2237C71.251 71.9752 71.3935 70.7273 71.3336 69.4787Z" fill="#BCBEBC"/>
<path d="M60.2519 54.3518C60.2519 55.1026 59.6429 55.7109 58.8921 55.7109C58.1412 55.7109 57.5322 55.1026 57.5322 54.3518C57.5322 53.6003 58.1412 52.992 58.8921 52.992C59.6429 52.992 60.2519 53.6003 60.2519 54.3518Z" fill="#52546E"/>
<path d="M60.2519 59.7886C60.2519 60.5395 59.6429 61.1484 58.8921 61.1484C58.1412 61.1484 57.5322 60.5395 57.5322 59.7886C57.5322 59.0378 58.1412 58.4295 58.8921 58.4295C59.6429 58.4295 60.2519 59.0378 60.2519 59.7886Z" fill="#52546E"/>
<path d="M60.2519 65.2261C60.2519 65.9776 59.6429 66.5859 58.8921 66.5859C58.1412 66.5859 57.5322 65.9776 57.5322 65.2261C57.5322 64.4759 58.1412 63.867 58.8921 63.867C59.6429 63.867 60.2519 64.4759 60.2519 65.2261Z" fill="#52546E"/>
<path d="M97.3761 102.77C95.7762 100.803 95.5381 97.6983 95.5381 97.6983C95.9473 97.3274 96.4724 97.0021 97.0664 96.7256C97.313 96.6033 97.5739 96.494 97.8452 96.3905C98.4457 96.1628 99.0912 95.9657 99.7554 95.803C100.045 95.7282 100.338 95.6592 100.633 95.5974C101.416 95.4341 102.198 95.304 102.932 95.2064C103.247 95.1595 103.553 95.1231 103.845 95.0873C104.64 94.9995 105.334 94.9448 105.854 94.911C106.458 94.8713 106.824 94.8609 106.824 94.8609C107.702 97.0138 107.201 100.659 107.201 100.659C106.488 101.189 105.657 101.593 104.789 101.895C101.383 103.089 97.3761 102.77 97.3761 102.77Z" fill="#F68672"/>
<path d="M104.104 98.7891C104.104 98.7891 103.96 98.4976 103.776 98.0532C103.591 97.6049 103.358 97.0148 103.179 96.3512C103.07 95.9484 102.992 95.56 102.933 95.2093C103.248 95.1625 103.553 95.126 103.845 95.0902C104.002 95.3746 104.143 95.7031 104.242 96.0636C104.439 96.7988 104.408 97.5021 104.321 97.9979C104.235 98.493 104.104 98.7891 104.104 98.7891Z" fill="#D03B58"/>
<path d="M101.002 99.1484C101.002 99.1484 100.839 98.881 100.637 98.4705C100.435 98.0567 100.184 97.5043 99.9973 96.8745C99.8873 96.501 99.8138 96.1354 99.7559 95.8048C100.045 95.73 100.339 95.6611 100.633 95.5993C100.796 95.8764 100.95 96.2004 101.056 96.5641C101.256 97.2493 101.246 97.9148 101.181 98.3859C101.112 98.8602 101.002 99.1484 101.002 99.1484Z" fill="#D03B58"/>
<path d="M98.3651 100.32C98.3651 100.32 98.1913 100.044 97.9747 99.6079C97.7606 99.168 97.4971 98.5766 97.3078 97.9013C97.192 97.4881 97.1159 97.086 97.0664 96.7256C97.313 96.6033 97.5739 96.494 97.8452 96.3905C98.0456 96.7282 98.2375 97.1394 98.367 97.6039C98.5694 98.3255 98.5713 99.0164 98.518 99.5129C98.4646 100.013 98.3651 100.32 98.3651 100.32Z" fill="#D03B58"/>
<path d="M104.79 101.895C105.259 101.268 105.663 100.604 105.872 99.8555C106.066 99.171 106.085 98.4521 106.082 97.7442C106.08 96.9341 106.109 96.0649 105.964 95.264C105.948 95.1592 105.903 95.0395 105.855 94.9107C106.458 94.871 106.825 94.8606 106.825 94.8606C107.702 97.0135 107.201 100.659 107.201 100.659C106.488 101.189 105.657 101.593 104.79 101.895Z" fill="#F9AA7F"/>
<path d="M29.4081 83.8203C29.4081 83.8203 30.0834 64.6639 30.0138 62.1362C29.9448 59.6085 24.583 46.0507 24.583 46.0507C24.583 46.0507 26.1894 44.2127 27.3007 44.1359C27.3007 44.1359 33.0848 60.1446 32.9319 62.1362C32.7783 64.1271 31.7061 83.8203 31.7061 83.8203H29.4081Z" fill="#F46D3C"/>
<path d="M78.9971 32.8164L88.7643 23.841L91.9257 30.5138L78.9971 32.8164Z" fill="white"/>
<path d="M74.8047 31.8164L73.8242 23.5411L78.376 24.1279L74.8047 31.8164Z" fill="white"/>
<path d="M79.4219 38.614L88.2685 38.6283L87.8735 42.8203L79.4219 38.614Z" fill="white"/>
</svg>
